<?xml version="1.0" encoding="utf-8"?>
<!-- Generator: Adobe Illustrator 16.0.0, SVG Export Plug-In . SVG Version: 6.00 Build 0)  -->
<!DOCTYPE svg PUBLIC "-//W3C//DTD SVG 1.1//EN" "http://www.w3.org/Graphics/SVG/1.1/DTD/svg11.dtd">
<svg version="1.1" id="Ebene_1" xmlns="http://www.w3.org/2000/svg" xmlns:xlink="http://www.w3.org/1999/xlink" x="0px" y="0px"
	 width="278px" height="154px" viewBox="0 0 278 154" enable-background="new 0 0 278 154" xml:space="preserve">
<g>
	<defs>
		<rect id="SVGID_1_" x="0.172" y="1.408" width="277.828" height="152.592"/>
	</defs>
	<clipPath id="SVGID_2_">
		<use xlink:href="#SVGID_1_"  overflow="visible"/>
	</clipPath>
	<path clip-path="url(#SVGID_2_)" fill="#75947C" d="M91.453,69.319l-4.116-6.856l0.486-0.899c0.554-1.047,0.865-2.649,0.921-4.764
		l-0.003-10.99c0-4.27,0.316-5.848,1.856-9.38c1.879-4.329,7.204-6.916,11.269-6.916l1.519-0.045h12.002V15.286
		c0-12.073,6.899-13.878,11.016-13.878c1.497,0,2.226,0.113,3.696,0.561l2.214,0.683L128.42,9.12l-1.161-0.137
		c-0.168-0.021-0.323-0.037-0.436-0.037c-1.486,0-3.734,0-3.734,7.015v13.511l12.286,0.004l-0.004-10.628
		c0-2.52-0.315-4.382-0.934-5.528l-0.49-0.908l4.117-6.846l1.639,1.745c1.967,2.096,3.087,5.148,3.328,9.074l0.042,13.097
		l11.183,0.01c11.414,0,19.082,7.703,19.082,19.165c0,11.851-8.072,20.446-19.193,20.446c-6.329,0-11.881-2.88-15.235-7.906
		c-0.117-0.165-3.534-5.076-3.534-12.477V36.929l-12.286-0.008v31.255h-7.702V36.921l-14.022,0.022
		c-1.545,0-3.387,1.268-4.108,2.826c-0.632,1.52-0.811,2.768-0.811,8.525l0.031,8.426c0,4.851-1.136,8.506-3.382,10.869
		L91.453,69.319z M143.081,36.934v1.485l-0.254,11.093c0,7.359,4.476,12.144,11.401,12.144c6.451,0,11.318-5.588,11.318-12.999
		c0-6.79-4.736-11.715-11.25-11.715L143.081,36.934z"/>
	<path clip-path="url(#SVGID_2_)" fill="#575756" d="M3.977,95.301v-5.74h1.914c1.892,0,2.762,1.304,2.762,2.871
		c0,1.587-0.87,2.869-2.762,2.869H3.977z M0.172,101.804h5.871v-0.457c-1.805,0-2.066-0.369-2.066-2.544v-2.72H5l4.306,5.721h3.588
		v-0.457c-1.305-0.153-2.762-1.24-4.045-2.763l-2.131-2.501c2.458-0.26,3.871-1.761,3.871-3.651c0-2.023-1.653-3.677-4.675-3.677
		H0.172v0.457c1.804,0,2.066,0.349,2.066,2.522v7.068c0,2.175-0.262,2.544-2.066,2.544V101.804z M15.742,96.823
		c0.304-1.066,1.109-1.762,2.044-1.762c1.436,0,1.805,1.065,1.566,1.762H15.742z M17.896,102.173c1.239,0,2.566-0.63,3.327-1.436
		l-0.391-0.478c-0.631,0.587-1.675,1.001-2.393,1.001c-2.239,0-3.088-1.59-2.826-3.634h5.24c0.522-1.87-1.022-3.435-2.957-3.435
		c-2.023,0-4.023,1.674-4.023,3.979C13.872,100.368,15.503,102.173,17.896,102.173 M22.831,101.804h4.98v-0.457
		c-1.457,0-1.718-0.369-1.718-2.544v-3.479h2.175v-0.762h-2.175v-2.088c0-2.501,0.522-3.37,1.631-3.37
		c1.37,0,0.783,1.674,1.849,1.674c0.478,0,0.717-0.348,0.717-0.782c0-0.697-0.739-1.609-2.174-1.609
		c-1.783,0-3.567,1.131-3.567,4.088v2.088h-1.783v0.762h1.783v3.479c0,2.175-0.282,2.544-1.718,2.544V101.804z M34.247,102.173
		c2.414,0,4.393-1.805,4.393-4.002c0-2.195-1.979-3.979-4.393-3.979c-2.414,0-4.392,1.783-4.392,3.979
		C29.855,100.368,31.833,102.173,34.247,102.173 M34.247,101.325c-1.783,0-2.631-1.414-2.631-3.154c0-1.739,0.848-3.152,2.631-3.152
		c1.805,0,2.632,1.413,2.632,3.152C36.879,99.911,36.052,101.325,34.247,101.325 M40.51,101.804h4.98v-0.457
		c-1.457,0-1.718-0.369-1.718-2.544v-1.196c0-1.74,1.175-2.545,1.675-2.545c0.435,0,0.696,0.262,0.696,0.718
		c0,0.413,0.348,0.783,0.761,0.783c0.674,0,0.87-0.544,0.87-1.022c0-0.544-0.522-1.348-1.718-1.348c-0.87,0-1.849,0.696-2.284,1.564
		c-0.065-0.456-0.261-1.347-0.369-1.564l-2.893,0.543v0.456c1.436,0,1.718,0.349,1.718,2.523v1.088c0,2.175-0.282,2.544-1.718,2.544
		V101.804z M49.057,101.804h4.61v-0.457c-1.196,0-1.348-0.283-1.348-2.544v-1.414c0-1.349,1.478-2.175,2.239-2.175
		c1.131,0,1.566,0.913,1.566,2.327v1.262c0,2.305-0.174,2.544-1.37,2.544v0.457h4.284v-0.457c-1.217,0-1.37-0.239-1.37-2.544v-1.414
		c0-1.349,1.523-2.175,2.262-2.175c1.131,0,1.544,0.913,1.544,2.327v1.262c0,2.305-0.152,2.544-1.348,2.544v0.457h4.61v-0.457
		c-1.435,0-1.718-0.369-1.718-2.544v-1.37c0-1.85-0.566-3.24-2.501-3.24c-1.283,0-2.544,0.913-3.045,1.631
		c-0.304-1.001-1-1.631-2.326-1.631c-1.262,0-2.24,0.826-2.827,1.564c-0.065-0.456-0.261-1.347-0.37-1.564l-2.892,0.543v0.456
		c1.435,0,1.718,0.349,1.718,2.523v1.088c0,2.175-0.283,2.544-1.718,2.544V101.804z M68.172,102.085
		c0.869,0,1.652-0.347,2.718-1.304c0.109,0.783,0.631,1.261,1.479,1.261c0.478,0,1.022-0.238,1.435-0.675l-0.305-0.413
		c-0.152,0.153-0.391,0.327-0.608,0.327c-0.327,0-0.501-0.304-0.501-0.848v-3.284c0-2.066-0.869-2.957-2.979-2.957
		c-1.392,0-2.761,0.696-2.761,1.739c0,0.435,0.326,0.762,0.761,0.762c0.413,0,0.739-0.327,0.739-0.762
		c0-0.696,0.739-1.043,1.239-1.043c1.24,0,1.457,0.651,1.457,2.281c-2.479,0.437-4.631,1.24-4.631,3.09
		C66.215,101.411,67.106,102.085,68.172,102.085 M68.868,101.107c-0.544,0-1.023-0.413-1.023-1.109c0-0.957,0.936-1.674,3.001-2.152
		v2.218C69.846,100.954,69.324,101.107,68.868,101.107 M77.914,102.107c0.718,0,1.674-0.499,2.283-1.239l-0.369-0.37
		c-0.5,0.479-1.022,0.739-1.414,0.739c-0.696,0-0.979-0.543-0.979-1.566v-4.348h1.893v-0.762h-1.893v-2.393h-0.739
		c-0.152,1.414-0.63,2.349-1.935,2.632v0.522h1.131v4.348C75.892,101.347,76.718,102.107,77.914,102.107 M81.393,101.804h4.981
		v-0.457c-1.458,0-1.719-0.369-1.719-2.544v-4.61l-3.262,0.543v0.456c1.436,0,1.718,0.349,1.718,2.523v1.088
		c0,2.175-0.282,2.544-1.718,2.544V101.804z M83.873,92.061c0.522,0,0.957-0.436,0.957-0.979c0-0.521-0.435-0.957-0.957-0.957
		c-0.522,0-0.957,0.436-0.957,0.957C82.917,91.625,83.351,92.061,83.873,92.061 M92.223,102.173c2.413,0,4.392-1.805,4.392-4.002
		c0-2.195-1.979-3.979-4.392-3.979c-2.414,0-4.393,1.783-4.393,3.979C87.83,100.368,89.809,102.173,92.223,102.173 M92.223,101.325
		c-1.784,0-2.632-1.414-2.632-3.154c0-1.739,0.848-3.152,2.632-3.152c1.804,0,2.631,1.413,2.631,3.152
		C94.854,99.911,94.027,101.325,92.223,101.325 M98.485,101.804h4.785v-0.457c-1.349,0-1.523-0.305-1.523-2.544v-1.414
		c0-1.196,1.305-2.175,2.501-2.175c1.305,0,1.805,0.913,1.805,2.327v1.262c0,2.175-0.304,2.544-1.718,2.544v0.457h4.98v-0.457
		c-1.457,0-1.718-0.369-1.718-2.544v-1.37c0-1.85-0.87-3.24-2.827-3.24c-1.435,0-2.436,0.826-3.023,1.564
		c-0.065-0.456-0.261-1.347-0.369-1.564l-2.893,0.543v0.456c1.436,0,1.718,0.349,1.718,2.523v1.088c0,2.175-0.282,2.544-1.718,2.544
		V101.804z M110.772,102.173h0.457c0-0.522,0.087-0.696,0.282-0.696c0.305,0,1.066,0.696,2.045,0.696
		c1.413,0,2.587-0.936,2.587-2.37c0-0.783-0.543-1.543-1.5-2.088l-1.044-0.565c-0.978-0.521-1.326-0.804-1.326-1.326
		c0-0.544,0.369-0.935,1.108-0.935c1.11,0,1.762,0.913,1.762,1.825h0.457v-2.521h-0.457c0,0.348-0.043,0.5-0.13,0.5
		c-0.283,0-0.718-0.5-1.849-0.5c-1.109,0-2.196,0.804-2.196,1.979c0,0.695,0.391,1.609,1.435,2.175l1.218,0.652
		c0.739,0.391,1.218,0.782,1.218,1.326c0,0.609-0.522,1.11-1.24,1.11c-1.544,0-2.37-1.458-2.37-2.437h-0.457V102.173z
		 M121.276,99.389c-1.066,0-1.588-0.979-1.588-2.239c0-1.283,0.522-2.261,1.588-2.261c1.065,0,1.565,0.978,1.565,2.261
		C122.841,98.41,122.341,99.389,121.276,99.389 M121.341,107.61c2.131,0,3.849-1.11,3.849-2.915c0-1.326-0.957-2.61-3.958-2.849
		c-0.718-0.065-1.979-0.238-1.979-0.826c0-0.587,1.479-0.806,2.436-0.914c1.413-0.195,2.827-1.348,2.827-2.957
		c0-0.653-0.239-1.283-0.631-1.761c0.239-0.239,0.5-0.349,0.674-0.349c0.892,0,0.348,1.043,1.305,0.979
		c0.87-0.043,0.783-1.826-0.718-1.826c-0.456,0-1.239,0.348-1.631,0.826c-0.587-0.522-1.37-0.826-2.239-0.826
		c-1.784,0-3.241,1.326-3.241,2.957c0,1.175,0.74,2.132,1.827,2.653c-1.131,0.348-1.827,0.957-1.827,1.74
		c0,1.305,1.305,1.848,3.088,2.021c1.827,0.174,2.914,0.5,2.914,1.521c0,1.022-1.348,1.676-2.696,1.676
		c-1.718,0-3.849-0.979-2.044-3.001l-0.392-0.24C116.231,104.913,117.667,107.61,121.341,107.61 M129.235,96.823
		c0.304-1.066,1.109-1.762,2.044-1.762c1.435,0,1.805,1.065,1.566,1.762H129.235z M131.388,102.173c1.239,0,2.566-0.63,3.327-1.436
		l-0.392-0.478c-0.63,0.587-1.674,1.001-2.392,1.001c-2.24,0-3.088-1.59-2.827-3.634h5.241c0.522-1.87-1.022-3.435-2.957-3.435
		c-2.023,0-4.023,1.674-4.023,3.979C127.365,100.368,128.995,102.173,131.388,102.173 M136.542,102.173h0.457
		c0-0.522,0.087-0.696,0.283-0.696c0.304,0,1.066,0.696,2.044,0.696c1.413,0,2.588-0.936,2.588-2.37
		c0-0.783-0.544-1.543-1.501-2.088l-1.043-0.565c-0.979-0.521-1.327-0.804-1.327-1.326c0-0.544,0.37-0.935,1.109-0.935
		c1.108,0,1.761,0.913,1.761,1.825h0.457v-2.521h-0.457c0,0.348-0.043,0.5-0.13,0.5c-0.283,0-0.718-0.5-1.849-0.5
		c-1.108,0-2.196,0.804-2.196,1.979c0,0.695,0.392,1.609,1.435,2.175l1.218,0.652c0.74,0.391,1.218,0.782,1.218,1.326
		c0,0.609-0.521,1.11-1.239,1.11c-1.544,0-2.371-1.458-2.371-2.437h-0.457V102.173z M147.784,102.173
		c1.239,0,2.414-0.544,3.241-1.436l-0.371-0.478c-0.719,0.674-1.609,1.001-2.326,1.001c-1.783,0-2.631-1.154-2.631-2.895
		c0-2,0.934-3.478,2.087-3.478c0.392,0,0.783,0.217,0.783,0.935c0,0.479,0.368,0.87,0.848,0.87c0.74,0,0.957-0.587,0.957-0.937
		c0-0.804-0.782-1.564-2.588-1.564c-1.741,0-3.851,1.609-3.851,4.174C143.934,100.542,145.37,102.173,147.784,102.173
		 M151.85,101.804h4.634v-0.457c-1.197,0-1.371-0.283-1.371-2.544v-1.414c0-1.24,1.262-2.175,2.349-2.175
		c1.131,0,1.631,0.913,1.631,2.327v1.262c0,2.239-0.174,2.544-1.543,2.544v0.457h4.828v-0.457c-1.459,0-1.74-0.369-1.74-2.544v-1.37
		c0-1.85-0.676-3.24-2.676-3.24c-1.261,0-2.24,0.826-2.849,1.564v-7.371l-3.263,0.544v0.457c1.457,0,1.719,0.368,1.719,2.544v6.872
		c0,2.175-0.262,2.544-1.719,2.544V101.804z M163.615,101.804h4.98v-0.457c-1.457,0-1.719-0.369-1.719-2.544v-4.61l-3.262,0.543
		v0.456c1.436,0,1.719,0.349,1.719,2.523v1.088c0,2.175-0.283,2.544-1.719,2.544V101.804z M166.094,92.061
		c0.522,0,0.957-0.436,0.957-0.979c0-0.521-0.435-0.957-0.957-0.957c-0.521,0-0.957,0.436-0.957,0.957
		C165.137,91.625,165.572,92.061,166.094,92.061 M173.901,102.173c1.239,0,2.414-0.544,3.239-1.436l-0.368-0.478
		c-0.718,0.674-1.61,1.001-2.327,1.001c-1.784,0-2.632-1.154-2.632-2.895c0-2,0.936-3.478,2.088-3.478
		c0.392,0,0.782,0.217,0.782,0.935c0,0.479,0.369,0.87,0.849,0.87c0.739,0,0.957-0.587,0.957-0.937c0-0.804-0.783-1.564-2.588-1.564
		c-1.74,0-3.849,1.609-3.849,4.174C170.053,100.542,171.487,102.173,173.901,102.173 M177.967,101.804h4.631v-0.457
		c-1.195,0-1.368-0.283-1.368-2.544v-1.414c0-1.24,1.261-2.175,2.348-2.175c1.132,0,1.632,0.913,1.632,2.327v1.262
		c0,2.239-0.175,2.544-1.545,2.544v0.457h4.828v-0.457c-1.456,0-1.738-0.369-1.738-2.544v-1.37c0-1.85-0.675-3.24-2.676-3.24
		c-1.262,0-2.24,0.826-2.849,1.564v-7.371l-3.263,0.544v0.457c1.457,0,1.719,0.368,1.719,2.544v6.872
		c0,2.175-0.262,2.544-1.719,2.544V101.804z M192.668,102.107c0.717,0,1.674-0.499,2.283-1.239l-0.37-0.37
		c-0.5,0.479-1.022,0.739-1.413,0.739c-0.695,0-0.979-0.543-0.979-1.566v-4.348h1.892v-0.762h-1.892v-2.393h-0.74
		c-0.152,1.414-0.63,2.349-1.936,2.632v0.522h1.132v4.348C190.646,101.347,191.471,102.107,192.668,102.107 M195.733,101.804h4.979
		v-0.457c-1.435,0-1.717-0.369-1.717-2.544V88.386l-3.263,0.544v0.457c1.458,0,1.718,0.368,1.718,2.544v6.872
		c0,2.175-0.26,2.544-1.718,2.544V101.804z M201.975,101.804h4.98v-0.457c-1.458,0-1.718-0.369-1.718-2.544v-4.61l-3.263,0.543
		v0.456c1.436,0,1.719,0.349,1.719,2.523v1.088c0,2.175-0.283,2.544-1.719,2.544V101.804z M204.454,92.061
		c0.522,0,0.956-0.436,0.956-0.979c0-0.521-0.434-0.957-0.956-0.957s-0.957,0.436-0.957,0.957
		C203.497,91.625,203.932,92.061,204.454,92.061 M212.26,102.173c1.24,0,2.414-0.544,3.242-1.436l-0.371-0.478
		c-0.718,0.674-1.608,1.001-2.328,1.001c-1.782,0-2.631-1.154-2.631-2.895c0-2,0.936-3.478,2.088-3.478
		c0.393,0,0.783,0.217,0.783,0.935c0,0.479,0.37,0.87,0.848,0.87c0.74,0,0.957-0.587,0.957-0.937c0-0.804-0.782-1.564-2.588-1.564
		c-1.738,0-3.849,1.609-3.849,4.174C208.411,100.542,209.846,102.173,212.26,102.173 M216.327,101.804h4.632v-0.457
		c-1.195,0-1.369-0.283-1.369-2.544v-1.414c0-1.24,1.26-2.175,2.348-2.175c1.131,0,1.632,0.913,1.632,2.327v1.262
		c0,2.239-0.175,2.544-1.545,2.544v0.457h4.827v-0.457c-1.456,0-1.739-0.369-1.739-2.544v-1.37c0-1.85-0.674-3.24-2.674-3.24
		c-1.263,0-2.241,0.826-2.849,1.564v-7.371l-3.263,0.544v0.457c1.457,0,1.718,0.368,1.718,2.544v6.872
		c0,2.175-0.261,2.544-1.718,2.544V101.804z M230.18,96.823c0.305-1.066,1.108-1.762,2.043-1.762c1.437,0,1.806,1.065,1.566,1.762
		H230.18z M232.332,102.173c1.24,0,2.566-0.63,3.327-1.436l-0.392-0.478c-0.631,0.587-1.674,1.001-2.393,1.001
		c-2.238,0-3.087-1.59-2.826-3.634h5.24c0.521-1.87-1.021-3.435-2.957-3.435c-2.021,0-4.023,1.674-4.023,3.979
		C228.309,100.368,229.94,102.173,232.332,102.173"/>
	<path clip-path="url(#SVGID_2_)" fill="#575756" d="M94.552,126.537h5.871v-0.457c-1.805,0-2.066-0.369-2.066-2.544v-3.501h1.088
		c2.174,0,2.522,0.261,2.522,2.087h0.457v-4.98h-0.457c0,1.828-0.348,2.089-2.522,2.089h-1.088v-4.937h3.589
		c1.978,0,2.218,0.5,2.5,1.631l0.109,0.437h0.457l-0.174-2.871H94.552v0.456c1.805,0,2.066,0.348,2.066,2.521v7.068
		c0,2.175-0.261,2.544-2.066,2.544V126.537z M109.165,126.907c2.414,0,4.393-1.806,4.393-4.001c0-2.197-1.979-3.98-4.393-3.98
		s-4.393,1.783-4.393,3.98C104.771,125.102,106.75,126.907,109.165,126.907 M109.165,126.059c-1.783,0-2.631-1.412-2.631-3.152
		c0-1.741,0.848-3.154,2.631-3.154c1.805,0,2.632,1.413,2.632,3.154C111.796,124.646,110.97,126.059,109.165,126.059
		 M115.428,126.537h4.98v-0.457c-1.457,0-1.718-0.369-1.718-2.544v-1.196c0-1.74,1.174-2.544,1.675-2.544
		c0.434,0,0.696,0.261,0.696,0.718c0,0.413,0.347,0.783,0.761,0.783c0.674,0,0.87-0.544,0.87-1.021c0-0.544-0.522-1.35-1.718-1.35
		c-0.87,0-1.849,0.696-2.284,1.567c-0.065-0.458-0.261-1.35-0.37-1.567l-2.892,0.543v0.458c1.435,0,1.718,0.349,1.718,2.522v1.087
		c0,2.175-0.283,2.544-1.718,2.544V126.537z M124.19,126.907h0.457c0-0.521,0.087-0.695,0.283-0.695
		c0.304,0,1.065,0.695,2.044,0.695c1.413,0,2.588-0.936,2.588-2.37c0-0.783-0.544-1.544-1.501-2.088l-1.044-0.565
		c-0.978-0.521-1.326-0.805-1.326-1.326c0-0.545,0.37-0.936,1.109-0.936c1.109,0,1.761,0.913,1.761,1.826h0.457v-2.522h-0.457
		c0,0.349-0.043,0.501-0.13,0.501c-0.283,0-0.718-0.501-1.849-0.501c-1.109,0-2.196,0.806-2.196,1.979
		c0,0.695,0.391,1.608,1.435,2.174l1.218,0.653c0.739,0.392,1.218,0.783,1.218,1.325c0,0.61-0.522,1.11-1.24,1.11
		c-1.544,0-2.37-1.457-2.37-2.436h-0.457V126.907z M135.434,126.907c1.24,0,2.414-0.544,3.24-1.437l-0.369-0.478
		c-0.718,0.675-1.61,1.001-2.327,1.001c-1.783,0-2.631-1.153-2.631-2.893c0-2.002,0.935-3.479,2.087-3.479
		c0.392,0,0.783,0.217,0.783,0.936c0,0.478,0.37,0.869,0.848,0.869c0.739,0,0.957-0.587,0.957-0.934
		c0-0.807-0.783-1.567-2.588-1.567c-1.74,0-3.849,1.609-3.849,4.176C131.584,125.276,133.02,126.907,135.434,126.907 M139.5,126.537
		h4.632v-0.457c-1.196,0-1.37-0.282-1.37-2.544v-1.414c0-1.239,1.261-2.174,2.348-2.174c1.132,0,1.632,0.914,1.632,2.327v1.261
		c0,2.24-0.175,2.544-1.543,2.544v0.457h4.826v-0.457c-1.457,0-1.74-0.369-1.74-2.544v-1.37c0-1.849-0.674-3.24-2.675-3.24
		c-1.26,0-2.239,0.826-2.848,1.567v-7.374l-3.262,0.545v0.456c1.457,0,1.718,0.371,1.718,2.545v6.871
		c0,2.175-0.262,2.544-1.718,2.544V126.537z M155.267,126.907c1.261,0,2.306-0.827,2.849-1.393c0.043,0.37,0.239,1.11,0.348,1.327
		l2.675-0.544v-0.413c-1.152,0-1.5-0.261-1.5-2.326v-4.264h-3.263v0.437c1.457,0,1.74,0.369,1.74,2.544v1.435
		c0,1.348-1.5,2.153-2.349,2.153c-1.174,0-1.653-0.913-1.653-2.327v-4.241h-3.262v0.437c1.457,0,1.718,0.369,1.718,2.544v1.369
		C152.569,125.494,153.266,126.907,155.267,126.907 M162.617,126.537h4.782v-0.457c-1.348,0-1.522-0.304-1.522-2.544v-1.414
		c0-1.195,1.306-2.174,2.502-2.174c1.305,0,1.805,0.914,1.805,2.327v1.261c0,2.175-0.305,2.544-1.719,2.544v0.457h4.98v-0.457
		c-1.457,0-1.717-0.369-1.717-2.544v-1.37c0-1.849-0.871-3.24-2.828-3.24c-1.436,0-2.436,0.826-3.023,1.567
		c-0.064-0.458-0.26-1.35-0.368-1.567l-2.892,0.543v0.458c1.435,0,1.717,0.349,1.717,2.522v1.087c0,2.175-0.282,2.544-1.717,2.544
		V126.537z M178.013,124.124c-1.065,0-1.588-0.98-1.588-2.24c0-1.284,0.522-2.262,1.588-2.262s1.565,0.978,1.565,2.262
		C179.578,123.144,179.078,124.124,178.013,124.124 M178.078,132.344c2.131,0,3.849-1.109,3.849-2.915
		c0-1.326-0.956-2.608-3.957-2.848c-0.72-0.065-1.979-0.239-1.979-0.827c0-0.587,1.479-0.804,2.436-0.913
		c1.414-0.194,2.826-1.347,2.826-2.957c0-0.651-0.238-1.284-0.629-1.762c0.238-0.239,0.498-0.348,0.672-0.348
		c0.893,0,0.35,1.044,1.307,0.979c0.869-0.044,0.782-1.827-0.718-1.827c-0.457,0-1.24,0.349-1.632,0.826
		c-0.586-0.521-1.369-0.826-2.239-0.826c-1.784,0-3.24,1.326-3.24,2.958c0,1.174,0.739,2.131,1.827,2.653
		c-1.131,0.348-1.827,0.957-1.827,1.74c0,1.305,1.304,1.847,3.088,2.021c1.826,0.174,2.914,0.501,2.914,1.523
		c0,1.021-1.349,1.675-2.696,1.675c-1.719,0-3.85-0.979-2.045-3.001l-0.391-0.239C172.968,129.647,174.402,132.344,178.078,132.344
		 M184.102,126.907h0.456c0-0.521,0.088-0.695,0.282-0.695c0.305,0,1.066,0.695,2.045,0.695c1.412,0,2.588-0.936,2.588-2.37
		c0-0.783-0.543-1.544-1.5-2.088l-1.044-0.565c-0.979-0.521-1.326-0.805-1.326-1.326c0-0.545,0.369-0.936,1.108-0.936
		c1.109,0,1.761,0.913,1.761,1.826h0.458v-2.522h-0.458c0,0.349-0.043,0.501-0.13,0.501c-0.282,0-0.719-0.501-1.848-0.501
		c-1.109,0-2.197,0.806-2.197,1.979c0,0.695,0.392,1.608,1.436,2.174l1.219,0.653c0.738,0.392,1.217,0.783,1.217,1.325
		c0,0.61-0.521,1.11-1.239,1.11c-1.544,0-2.371-1.457-2.371-2.436h-0.456V126.907z M195.976,126.037
		c-1.001,0-1.806-0.696-2.198-1.739v-2.783c0.393-1.021,1.197-1.719,2.198-1.719c1.694,0,2.478,1.369,2.478,3.11
		C198.453,124.646,197.67,126.037,195.976,126.037 M192.233,126.907h0.456l0.959-1.457c0.629,0.892,1.63,1.457,2.783,1.457
		c2.064,0,3.762-1.806,3.762-4.001c0-2.197-1.697-3.98-3.762-3.98c-1.088,0-2.001,0.479-2.654,1.284v-7.091l-3.262,0.545v0.456
		c1.436,0,1.718,0.371,1.718,2.545V126.907z M202.084,126.537h4.98v-0.457c-1.457,0-1.717-0.369-1.717-2.544v-4.61l-3.264,0.543
		v0.458c1.437,0,1.719,0.349,1.719,2.522v1.087c0,2.175-0.282,2.544-1.719,2.544V126.537z M204.563,116.795
		c0.522,0,0.957-0.434,0.957-0.979c0-0.521-0.435-0.957-0.957-0.957c-0.521,0-0.957,0.436-0.957,0.957
		C203.606,116.361,204.043,116.795,204.563,116.795 M213.002,126.037c-1,0-1.805-0.696-2.197-1.739v-2.783
		c0.393-1.021,1.197-1.719,2.197-1.719c1.695,0,2.479,1.369,2.479,3.11C215.48,124.646,214.697,126.037,213.002,126.037
		 M209.262,126.907h0.456l0.957-1.457c0.631,0.892,1.631,1.457,2.784,1.457c2.065,0,3.762-1.806,3.762-4.001
		c0-2.197-1.696-3.98-3.762-3.98c-1.088,0-2.002,0.479-2.654,1.284v-7.091l-3.262,0.545v0.456c1.436,0,1.719,0.371,1.719,2.545
		V126.907z M218.699,126.537h4.979v-0.457c-1.435,0-1.718-0.369-1.718-2.544v-10.417l-3.262,0.545v0.456
		c1.457,0,1.719,0.371,1.719,2.545v6.871c0,2.175-0.262,2.544-1.719,2.544V126.537z M224.94,126.537h4.979v-0.457
		c-1.457,0-1.717-0.369-1.717-2.544v-4.61l-3.263,0.543v0.458c1.435,0,1.718,0.349,1.718,2.522v1.087
		c0,2.175-0.283,2.544-1.718,2.544V126.537z M227.42,116.795c0.521,0,0.957-0.434,0.957-0.979c0-0.521-0.436-0.957-0.957-0.957
		c-0.522,0-0.957,0.436-0.957,0.957C226.463,116.361,226.897,116.795,227.42,116.795 M235.77,126.907
		c2.414,0,4.393-1.806,4.393-4.001c0-2.197-1.979-3.98-4.393-3.98c-2.413,0-4.393,1.783-4.393,3.98
		C231.377,125.102,233.356,126.907,235.77,126.907 M235.77,126.059c-1.783,0-2.631-1.412-2.631-3.152
		c0-1.741,0.848-3.154,2.631-3.154c1.805,0,2.631,1.413,2.631,3.154C238.4,124.646,237.574,126.059,235.77,126.059 M244.968,126.842
		c0.718,0,1.675-0.5,2.284-1.239l-0.371-0.37c-0.498,0.479-1.021,0.739-1.411,0.739c-0.697,0-0.979-0.543-0.979-1.564v-4.351h1.893
		v-0.762h-1.893v-2.391h-0.74c-0.151,1.413-0.629,2.349-1.935,2.632v0.521h1.132v4.351
		C242.947,126.08,243.772,126.842,244.968,126.842 M248.033,126.537h4.633v-0.457c-1.195,0-1.371-0.282-1.371-2.544v-1.414
		c0-1.239,1.263-2.174,2.35-2.174c1.131,0,1.631,0.914,1.631,2.327v1.261c0,2.24-0.174,2.544-1.544,2.544v0.457h4.828v-0.457
		c-1.457,0-1.74-0.369-1.74-2.544v-1.37c0-1.849-0.674-3.24-2.675-3.24c-1.261,0-2.238,0.826-2.85,1.567v-7.374l-3.262,0.545v0.456
		c1.459,0,1.719,0.371,1.719,2.545v6.871c0,2.175-0.26,2.544-1.719,2.544V126.537z M261.887,121.557
		c0.304-1.063,1.109-1.761,2.044-1.761c1.435,0,1.805,1.066,1.565,1.761H261.887z M264.039,126.907c1.239,0,2.566-0.63,3.328-1.437
		l-0.392-0.478c-0.631,0.587-1.675,1.001-2.392,1.001c-2.24,0-3.088-1.587-2.828-3.631h5.24c0.522-1.87-1.021-3.438-2.957-3.438
		c-2.021,0-4.022,1.674-4.022,3.98C260.017,125.102,261.647,126.907,264.039,126.907 M268.563,126.537h4.98v-0.457
		c-1.436,0-1.719-0.369-1.719-2.544v-0.393l0.262-0.216l3.5,3.609H278v-0.457c-0.282,0-0.912-0.151-1.282-0.521l-3.501-3.522
		l1.848-1.522c0.85-0.695,2.283-0.782,2.283-0.782v-0.437H273v0.437c1.064,0,1.369,0.564,0.651,1.151l-1.827,1.48v-9.244
		l-3.262,0.545v0.456c1.457,0,1.719,0.371,1.719,2.545v6.871c0,2.175-0.262,2.544-1.719,2.544V126.537z"/>
	<path clip-path="url(#SVGID_2_)" fill="#75947C" d="M60.398,148.563h0.282l3.066-9.634l3.045,9.634h0.283l3.523-11.069
		c0.456-1.456,0.783-1.893,2.587-1.893v-0.455h-4.893v0.455c1.566,0,1.892,0.457,1.523,1.653l-2.37,7.481l-3.045-9.59h-0.304
		l-3.045,9.611l-2.392-7.503c-0.37-1.217-0.109-1.653,1.718-1.653v-0.455h-6.089v0.455c1.805,0,2.088,0.283,2.588,1.893
		L60.398,148.563z M72.597,148.193h4.98v-0.456c-1.457,0-1.718-0.369-1.718-2.545v-4.61l-3.262,0.543v0.457
		c1.436,0,1.718,0.349,1.718,2.523v1.087c0,2.176-0.282,2.545-1.718,2.545V148.193z M75.076,138.451
		c0.522,0,0.957-0.435,0.957-0.979c0-0.521-0.435-0.957-0.957-0.957c-0.521,0-0.956,0.436-0.956,0.957
		C74.12,138.017,74.555,138.451,75.076,138.451 M81.752,148.498c0.718,0,1.675-0.5,2.284-1.239l-0.37-0.371
		c-0.5,0.48-1.022,0.74-1.413,0.74c-0.696,0-0.979-0.543-0.979-1.564v-4.351h1.892v-0.762h-1.892v-2.392h-0.739
		c-0.153,1.413-0.631,2.35-1.936,2.633v0.521h1.131v4.351C79.73,147.737,80.557,148.498,81.752,148.498 M88.168,148.498
		c0.717,0,1.674-0.5,2.283-1.239l-0.369-0.371c-0.501,0.48-1.023,0.74-1.414,0.74c-0.696,0-0.979-0.543-0.979-1.564v-4.351h1.892
		v-0.762h-1.892v-2.392H86.95c-0.152,1.413-0.631,2.35-1.935,2.633v0.521h1.13v4.351C86.145,147.737,86.972,148.498,88.168,148.498
		 M93.735,143.213c0.304-1.065,1.109-1.761,2.044-1.761c1.435,0,1.805,1.065,1.566,1.761H93.735z M95.888,148.563
		c1.239,0,2.566-0.631,3.327-1.437l-0.392-0.478c-0.63,0.587-1.674,1.001-2.392,1.001c-2.239,0-3.088-1.587-2.827-3.634h5.241
		c0.522-1.869-1.022-3.435-2.957-3.435c-2.023,0-4.024,1.674-4.024,3.979C91.864,146.758,93.496,148.563,95.888,148.563
		 M100.824,148.193h4.784v-0.456c-1.348,0-1.522-0.305-1.522-2.545v-1.413c0-1.196,1.305-2.176,2.501-2.176
		c1.305,0,1.805,0.914,1.805,2.327v1.262c0,2.176-0.305,2.545-1.718,2.545v0.456h4.98v-0.456c-1.457,0-1.718-0.369-1.718-2.545
		v-1.37c0-1.85-0.87-3.24-2.827-3.24c-1.435,0-2.436,0.826-3.023,1.565c-0.065-0.456-0.261-1.348-0.37-1.565l-2.892,0.543v0.457
		c1.435,0,1.718,0.349,1.718,2.523v1.087c0,2.176-0.283,2.545-1.718,2.545V148.193z M117.591,147.693
		c-1.001,0-1.805-0.696-2.197-1.739v-2.783c0.392-1.023,1.196-1.719,2.197-1.719c1.696,0,2.479,1.37,2.479,3.109
		C120.07,146.302,119.287,147.693,117.591,147.693 M113.85,148.563h0.457l0.957-1.457c0.63,0.892,1.63,1.457,2.783,1.457
		c2.066,0,3.762-1.806,3.762-4.002s-1.696-3.979-3.762-3.979c-1.087,0-2,0.478-2.653,1.283v-7.089l-3.262,0.544v0.456
		c1.435,0,1.718,0.368,1.718,2.545V148.563z M125.788,143.213c0.305-1.065,1.109-1.761,2.044-1.761c1.435,0,1.805,1.065,1.566,1.761
		H125.788z M127.941,148.563c1.24,0,2.566-0.631,3.327-1.437l-0.391-0.478c-0.631,0.587-1.675,1.001-2.392,1.001
		c-2.24,0-3.088-1.587-2.827-3.634h5.241c0.521-1.869-1.023-3.435-2.958-3.435c-2.022,0-4.023,1.674-4.023,3.979
		C123.918,146.758,125.549,148.563,127.941,148.563 M132.877,148.193h4.98v-0.456c-1.457,0-1.718-0.369-1.718-2.545v-1.196
		c0-1.74,1.175-2.544,1.675-2.544c0.435,0,0.696,0.261,0.696,0.718c0,0.413,0.348,0.783,0.761,0.783
		c0.673,0,0.871-0.544,0.871-1.022c0-0.544-0.522-1.349-1.719-1.349c-0.87,0-1.849,0.696-2.284,1.565
		c-0.065-0.456-0.261-1.348-0.369-1.565l-2.893,0.543v0.457c1.436,0,1.719,0.349,1.719,2.523v1.087c0,2.176-0.283,2.545-1.719,2.545
		V148.193z M144.751,145.78c-1.065,0-1.587-0.979-1.587-2.24c0-1.284,0.521-2.262,1.587-2.262s1.565,0.978,1.565,2.262
		C146.316,144.801,145.816,145.78,144.751,145.78 M144.816,154c2.131,0,3.849-1.11,3.849-2.915c0-1.326-0.957-2.609-3.958-2.848
		c-0.717-0.065-1.979-0.239-1.979-0.827c0-0.587,1.479-0.804,2.436-0.913c1.413-0.195,2.827-1.349,2.827-2.957
		c0-0.652-0.239-1.284-0.632-1.762c0.24-0.239,0.502-0.348,0.676-0.348c0.892,0,0.347,1.043,1.304,0.979
		c0.87-0.044,0.784-1.827-0.718-1.827c-0.456,0-1.239,0.348-1.63,0.826c-0.589-0.522-1.371-0.826-2.24-0.826
		c-1.783,0-3.24,1.326-3.24,2.958c0,1.174,0.739,2.131,1.826,2.653c-1.13,0.348-1.826,0.957-1.826,1.739
		c0,1.306,1.306,1.849,3.087,2.021c1.827,0.174,2.916,0.501,2.916,1.522c0,1.022-1.349,1.676-2.697,1.676
		c-1.717,0-3.85-0.98-2.045-3.001l-0.392-0.239C139.706,151.303,141.141,154,144.816,154"/>
</g>
</svg>
