<svg preserveAspectRatio="xMinYMin meet" version="1.1" viewBox="0 0 512 426" xmlns="http://www.w3.org/2000/svg"><style type="text/css">.logo-primary{fill:#13357a}</style><path class="logo-primary" d="M 8.1732824,359.89999 V 345.49981 H 23.104961 v -6.32335 H 8.1732824 v -9.8303 H 24.592844 V 322.704 H 1.0000004 v 37.19599 z m 142.1504476,0 v -24.38988 h 0.10612 l 13.76255,24.38988 h 7.06715 V 322.704 h -7.22654 v 24.38987 H 163.9265 L 150.32373,322.704 h -7.17364 v 37.19599 z m 56.44277,-5.84514 c -2.55086,0 -4.64976,-1.08921 -6.29673,-3.26764 -1.64729,-2.1788 -2.47097,-5.53496 -2.47097,-10.06959 0,-3.86101 0.85028,-6.85483 2.55051,-8.98036 1.70055,-2.12518 3.77285,-3.18813 6.21719,-3.18813 2.16043,0 3.82576,0.71751 4.99485,2.15217 1.16874,1.43465 1.91288,3.286 2.23172,5.55295 l 7.12035,-1.11621 c -0.42497,-4.03841 -1.97585,-7.25316 -4.6494,-9.64425 -2.67501,-2.3911 -5.92502,-3.58683 -9.75078,-3.58683 -4.39357,0 -8.17468,1.66567 -11.34483,4.99485 -3.17158,3.33098 -4.75557,7.93577 -4.75557,13.81581 0,6.69507 1.4962,11.69999 4.49001,15.01118 2.99239,3.31263 6.8811,4.96822 11.66365,4.96822 4.10823,0 7.4392,-1.2389 9.9897,-3.7196 2.55051,-2.47925 4.12656,-5.88004 4.7293,-10.20236 l -7.4392,-1.64696 c -0.67397,5.95129 -3.10033,8.92675 -7.2798,8.92675 m 41.64246,5.84514 v -11.63702 l 2.76316,-3.66634 h 0.10651 l 11.21169,15.30336 h 8.66155 L 256.11406,339.12356 270.03602,322.704 h -8.34274 l -13.1778,15.62253 h -0.10651 V 322.704 h -7.17329 v 37.19599 z m 66.31375,0 v -6.64217 h -16.36599 v -9.19266 h 14.87844 v -6.37625 h -14.87844 v -8.34275 h 16.36599 V 322.704 h -23.53963 v 37.19599 z m 24.9537,-2.52387 c 2.6034,2.21477 6.01282,3.3209 10.22863,3.3209 4.14492,0 7.45611,-1.0795 9.9368,-3.24138 2.47926,-2.16044 3.71964,-4.88834 3.71964,-8.18297 0,-2.79807 -0.76216,-5.02148 -2.28494,-6.6688 -1.52426,-1.64732 -4.34035,-3.17841 -8.44889,-4.59615 -4.25075,-1.45157 -6.89082,-2.47098 -7.91746,-3.05535 -1.02768,-0.58473 -1.54081,-1.42494 -1.54081,-2.52423 0,-1.1691 0.45163,-2.10719 1.35481,-2.81606 0.90351,-0.70779 2.27519,-1.06295 4.11826,-1.06295 3.47063,0 5.75558,1.75347 6.85483,5.26077 l 6.96102,-1.75383 c -0.63802,-3.36408 -2.22345,-5.89803 -4.75596,-7.5986 -2.53395,-1.70022 -5.55295,-2.55051 -9.05989,-2.55051 -3.86209,0 -6.91776,1.03633 -9.16604,3.10861 -2.25004,2.07228 -3.37452,4.56125 -3.37452,7.46582 0,2.5156 0.80567,4.6325 2.41808,6.34999 1.61066,1.71856 4.34715,3.17985 8.20961,4.38349 4.10822,1.27561 6.7386,2.31157 7.89079,3.1086 1.15075,0.79703 1.72684,1.9395 1.72684,3.42742 0,1.4181 -0.60272,2.48896 -1.80673,3.21475 -1.20508,0.72722 -2.81602,1.08921 -4.83544,1.08921 -2.37414,0 -4.08303,-0.6459 -5.12763,-1.9395 -1.04603,-1.2918 -1.79809,-3.39071 -2.25828,-6.29673 l -7.54538,1.64732 c 0.53111,4.39357 2.09891,7.69648 4.70266,9.91018 m 59.43227,-3.32127 c -2.55046,0 -4.64797,-1.08921 -6.29669,-3.26764 -1.64735,-2.1788 -2.46957,-5.53496 -2.46957,-10.06959 0,-3.86101 0.84884,-6.85483 2.54945,-8.98036 1.70018,-2.12518 3.7725,-3.18813 6.21681,-3.18813 2.16044,0 3.82615,0.71751 4.99489,2.15217 1.16906,1.43465 1.91287,3.286 2.23205,5.55295 l 7.11999,-1.11621 c -0.42497,-4.03841 -1.97441,-7.25316 -4.64938,-9.64425 -2.67504,-2.3911 -5.92466,-3.58683 -9.7494,-3.58683 -4.39353,0 -8.17607,1.66567 -11.34588,4.99485 -3.17009,3.33098 -4.75592,7.93577 -4.75592,13.81581 0,6.69507 1.49619,11.69999 4.49001,15.01118 2.99385,3.31263 6.88145,4.96822 11.66364,4.96822 4.10966,0 7.4392,-1.2389 9.9911,-3.7196 2.5495,-2.47925 4.12517,-5.88004 4.72789,-10.20236 l -7.4392,-1.64696 c -0.67249,5.95129 -3.09996,8.92675 -7.27979,8.92675 m 42.96697,5.84514 V 343.7996 h 12.75293 v 16.10039 h 7.17361 V 322.704 h -7.17361 v 14.98491 H 442.07565 V 322.704 h -7.1736 v 37.19599 z m 68.92436,0 v -6.64217 h -16.36595 v -9.19266 h 14.87839 v -6.37625 h -14.87839 v -8.34275 h 16.36595 V 322.704 h -23.53959 v 37.19599 z M 38.086246,421.6791 c 2.603392,2.21481 6.012823,3.3209 10.228647,3.3209 4.144901,0 7.45609,-1.07954 9.936782,-3.24142 2.47925,-2.16037 3.719596,-4.88866 3.719596,-8.18294 0,-2.79806 -0.762127,-5.02144 -2.284936,-6.66879 -1.524251,-1.64732 -4.340668,-3.17841 -8.448892,-4.59655 -4.251073,-1.45117 -6.890816,-2.47062 -7.917425,-3.05531 -1.027681,-0.58437 -1.540807,-1.42491 -1.540807,-2.52387 0,-1.1691 0.451591,-2.10719 1.354784,-2.81642 0.903539,-0.7074 2.27522,-1.06259 4.118284,-1.06259 3.470595,0 5.755549,1.75347 6.854481,5.26041 l 6.960973,-1.75351 c -0.637625,-3.36444 -2.223416,-5.89803 -4.755553,-7.59857 -2.533952,-1.70025 -5.552956,-2.5505 -9.059901,-2.5505 -3.862449,0 -6.917789,1.03636 -9.166033,3.1086 -2.250046,2.07229 -3.374526,4.56125 -3.374526,7.46583 0,2.5156 0.805667,4.6325 2.417729,6.34962 1.610975,1.71857 4.347502,3.17985 8.209966,4.38386 4.108209,1.27525 6.738603,2.3116 7.890808,3.1086 1.150726,0.79703 1.726816,1.93954 1.726816,3.42741 0,1.41775 -0.602721,2.48897 -1.806717,3.21479 -1.205083,0.72715 -2.816061,1.08915 -4.835429,1.08915 -2.3742,0 -4.083049,-0.64587 -5.127625,-1.93951 -1.046061,-1.29209 -1.798469,-3.39107 -2.258337,-6.29669 l -7.54535,1.64728 c 0.531108,4.39361 2.098913,7.69648 4.702665,9.91022 m 57.185113,2.52387 V 393.6491 h 10.893231 v -6.64216 H 77.204832 v 6.64216 h 10.893259 v 30.55387 z m 36.919271,-37.19603 h -7.17361 v 37.19603 h 7.17361 z m 31.35085,37.19603 v -14.40015 h 14.93131 v -6.32339 h -14.93131 v -9.83033 h 16.41922 v -6.64216 h -23.59286 v 37.19603 z m 52.05749,0 V 393.6491 h 10.89323 v -6.64216 h -28.95975 v 6.64216 h 10.89288 v 30.55387 z m 34.08739,-2.52387 c 2.53252,2.21481 5.92504,3.3209 10.17574,3.3209 4.25106,0 7.65185,-1.10609 10.20235,-3.3209 2.5505,-2.21374 3.82611,-5.41046 3.82611,-9.59137 v -25.08079 h -7.17363 v 24.86813 c 0,1.98448 -0.58437,3.56019 -1.75343,4.72929 -1.16915,1.16907 -2.86935,1.75344 -5.1014,1.75344 -2.23169,0 -3.92362,-0.59258 -5.07438,-1.78006 -1.15218,-1.18562 -1.72721,-2.78979 -1.72721,-4.80886 v -24.76194 h -7.17328 v 25.08079 c 0,4.18091 1.26554,7.37763 3.79913,9.59137 m 54.98041,2.52387 v -24.38984 h 0.10615 l 13.76259,24.38984 h 7.06713 v -37.19603 h -7.22658 v 24.38991 h -0.10651 l -13.60278,-24.38991 h -7.17365 v 37.19603 z m 69.13122,-3.32091 c 2.65705,-2.7452 3.98516,-6.47304 3.98516,-11.18542 v -4.94196 h -13.7622 v 6.11106 h 6.90776 c 0,2.37422 -0.66425,4.21581 -1.99279,5.526 -1.32851,1.31191 -3.14491,1.96606 -5.44641,1.96606 -2.55053,0 -4.64944,-1.08915 -6.29676,-3.26794 -1.64732,-2.17847 -2.47098,-5.5346 -2.47098,-10.06926 0,-3.86101 0.85029,-6.85483 2.5505,-8.98037 1.70058,-2.12553 3.77286,-3.18812 6.21724,-3.18812 3.86062,0 6.23372,2.39109 7.12035,7.17364 l 7.17329,-1.1691 c -0.53112,-3.89592 -2.11687,-6.97785 -4.75553,-9.24592 -2.64006,-2.26659 -5.83686,-3.40079 -9.5914,-3.40079 -4.39357,0 -8.1747,1.66531 -11.34483,4.99485 -3.17121,3.33094 -4.75556,7.93577 -4.75556,13.81581 0,6.69503 1.49619,11.70003 4.49,15.01118 2.99238,3.31263 6.8811,4.96822 11.66368,4.96822 4.21434,0 7.65186,-1.37169 10.30848,-4.11794 m 49.96973,3.32091 v -6.64217 h -16.36595 v -9.1927 h 14.87839 v -6.37658 h -14.87839 v -8.34242 h 16.36595 v -6.64216 h -23.53963 v 37.19603 z m 30.19187,0 v -24.38984 h 0.10615 l 13.76252,24.38984 h 7.06756 v -37.19603 h -7.22693 v 24.38991 h -0.10616 l -13.60311,-24.38991 h -7.17368 v 37.19603 h 7.17368 z M 45.320312,322.70312 v 37.19727 h 7.173829 v -13.81641 h 5.52539 l 7.492188,13.81641 h 7.757812 l -7.916015,-14.50586 c 2.444327,-0.77904 4.365872,-2.10835 5.765625,-3.98633 1.399752,-1.87689 2.097656,-4.16212 2.097656,-6.85547 0,-3.61345 -1.177013,-6.49087 -3.533203,-8.63476 -2.35655,-2.14209 -5.445738,-3.21485 -9.271485,-3.21485 z m 7.173829,6.48438 h 7.332031 c 4.073672,0 6.111328,1.78812 6.111328,5.36523 0,3.54328 -2.037656,5.31446 -6.111328,5.31446 h -7.332031 z m 51.501949,-6.48438 -13.445309,37.19727 h 7.121094 l 2.125,-6.11133 h 14.187505 l 2.12695,6.11133 h 7.38476 l -13.39062,-37.19727 z m 2.86914,10.62891 h 0.10352 l 4.99609,14.50586 h -10.14843 z"/><path class="logo-primary" d="m 250.61293,107.26912 c 65.91647,-0.24469 74.77629,35.31947 74.77629,35.31947 -37.9117,0 -35.53605,33.43428 -35.53605,33.43428 l 0.0364,72.86775 h -69.21653 l -0.0867,-70.90161 C 220.37792,137.6621 179.79373,141.88906 179.79373,141.88906 V 74.210856 h 3.612 c 0,0 4.01467,33.300074 67.2072,33.058264 m 51.30579,141.62293 h 28.78092 v -45.0562 c 0,-5.16685 -4.16435,-9.3535 -9.30169,-9.3535 h -10.17718 c -5.1377,0 -9.30205,4.18665 -9.30205,9.3535 z m 14.41205,-61.84999 c 6.77063,0 12.21023,-5.44824 12.21023,-12.23973 0,-6.75984 -5.4396,-12.22462 -12.21023,-12.22462 -6.76951,0 -12.25377,5.46478 -12.25377,12.22462 0,6.79149 5.48426,12.23973 12.25377,12.23973 m -136.5363,61.84892 h 28.78199 v -29.00582 c 0,-5.16541 -4.16577,-9.35352 -9.30315,-9.35352 h -10.17712 c -5.13631,0 -9.30172,4.18811 -9.30172,9.35352 z M 270.76253,83.624818 c 0,-9.451381 -7.89763,-17.107207 -17.64695,-17.107207 -9.73098,0 -17.64733,7.655826 -17.64733,17.107207 0,9.460032 7.91635,17.089222 17.64733,17.089222 9.74932,0 17.64695,-7.62919 17.64695,-17.089222 M 194.20687,203.09209 c 6.77062,0 12.21024,-5.44681 12.21024,-12.23976 0,-6.75945 -5.43962,-12.22424 -12.21024,-12.22424 -6.76953,0 -12.25376,5.46479 -12.25376,12.22424 0,6.79295 5.48423,12.23976 12.25376,12.23976"/><path d="M 254.12305 1.890625 L 179.76367 45.208984 L 179.80273 45.208984 L 179.80273 54.068359 L 330.86328 54.068359 L 330.86328 45.208984 L 330.82422 45.208984 L 254.12305 1.890625 z M 179.79492 261.83594 L 179.79492 283.25 L 330.9082 283.25 L 330.9082 261.83594 L 179.79492 261.83594 z" fill="#c1c0c4"/></svg>