<?xml version="1.0" encoding="UTF-8" standalone="no"?>
<!DOCTYPE svg PUBLIC "-//W3C//DTD SVG 1.1//EN" "http://www.w3.org/Graphics/SVG/1.1/DTD/svg11.dtd">
<svg width="100%" height="100%" viewBox="0 0 2557 1221" version="1.1" xmlns="http://www.w3.org/2000/svg" xmlns:xlink="http://www.w3.org/1999/xlink" xml:space="preserve" xmlns:serif="http://www.serif.com/" style="fill-rule:evenodd;clip-rule:evenodd;stroke-linejoin:round;stroke-miterlimit:1.41421;">
    <g id="logo-2018">
        <g id="icon-high-end">
            <path d="M382.373,81.392c0,0 -92.573,-71.599 -105.264,-81.392c-12.688,9.793 -104.574,81.392 -104.574,81.392c-111.04,85.694 -172.535,201.922 -172.535,323.112l0,642.256l54.026,0l0,-581.638c0,-109.266 55.881,-214.062 155.994,-291.325c0,0 83.463,-64.554 94.906,-73.386c11.439,8.832 94.599,73.386 94.599,73.386c100.114,77.263 155.873,182.059 155.873,291.325l0,-60.618c0,-121.19 -61.985,-237.418 -173.025,-323.112" style="fill:#53602e;fill-rule:nonzero;"/>
            <path d="M399.433,173.797c0,0 -83.447,-64.554 -94.887,-73.386c-11.442,8.832 -94.623,73.386 -94.623,73.386c-100.114,77.263 -155.894,182.056 -155.894,291.325l0,581.638l60.509,0l0,-515.366c0,-96.014 49.302,-188.095 137.273,-255.99c0,0 73.438,-56.721 83.492,-64.48c10.051,7.759 83.128,64.48 83.128,64.48c87.971,67.895 136.967,159.976 136.967,255.99l0,-66.272c0,-109.269 -55.849,-214.062 -155.965,-291.325" style="fill:#9fc16f;fill-rule:nonzero;"/>
            <path d="M418.4,275.407c0,0 -73.301,-56.721 -83.355,-64.483c-10.051,7.762 -83.334,64.483 -83.334,64.483c-87.968,67.892 -137.173,159.973 -137.173,255.987l0,515.363l56.187,0l0,-457.417c0,-84.424 41.912,-165.389 119.265,-225.088c0,0 63.856,-49.876 72.695,-56.697c8.836,6.821 72.684,56.697 72.684,56.697c77.353,59.699 120.029,140.664 120.029,225.088l0,-57.946c0,-96.014 -49.028,-188.095 -136.998,-255.987" style="fill:#c2e28f;fill-rule:nonzero;"/>
            <path d="M220.43,643.535c0,-73.873 38.073,-144.721 105.757,-196.955c0,0 56.571,-43.643 64.309,-49.616c7.733,5.973 63.903,49.616 63.903,49.616c54.437,42.012 92.355,96.067 100.999,154.052l0,-11.292c0,-84.421 -43.063,-165.389 -120.413,-225.088c0,0 -64.431,-49.876 -73.27,-56.694c-8.839,6.818 -71.823,56.694 -71.823,56.694c-77.35,59.699 -119.165,140.667 -119.165,225.088l0,457.42l49.703,0l0,-403.225Z" style="fill:#edfcc8;fill-rule:nonzero;"/>
        </g>
        <g id="logo-parts">
            <g id="text-fid-de">
                <path id="nordafrika-und-islamstudien" d="M68.498,1218.95l-14.286,0l-39.037,-76.59l-0.424,0.141l0,76.449l-14.357,0l0,-102.969l14.357,0l39.037,76.378l0.424,-0.142l0,-76.236l14.286,0l0,102.969Z" style="fill:#414b24;fill-rule:nonzero;"/>
                <path d="M178.037,1181.68c0,12.211 -3.159,21.723 -9.476,28.536c-6.318,6.812 -14.781,10.219 -25.389,10.219c-10.466,0 -18.788,-3.407 -24.964,-10.219c-6.176,-6.813 -9.264,-16.325 -9.264,-28.536l0,-28.288c0,-12.164 3.1,-21.687 9.299,-28.571c6.2,-6.883 14.51,-10.325 24.929,-10.325c10.561,0 19.012,3.442 25.353,10.325c6.341,6.884 9.512,16.407 9.512,28.571l0,28.288Zm-14.285,-28.5c0,-8.958 -1.792,-15.759 -5.375,-20.403c-3.583,-4.643 -8.651,-6.965 -15.205,-6.965c-6.459,0 -11.409,2.322 -14.851,6.965c-3.442,4.644 -5.163,11.445 -5.163,20.403l0,28.5c0,9.052 1.733,15.912 5.198,20.58c3.466,4.667 8.404,7.001 14.816,7.001c6.601,0 11.681,-2.322 15.24,-6.966c3.56,-4.644 5.34,-11.515 5.34,-20.615l0,-28.5Z" style="fill:#414b24;fill-rule:nonzero;"/>
                <path d="M232.769,1174.54l0,44.412l-14.357,0l0,-102.898l32.037,0c9.759,0 17.302,2.521 22.63,7.562c5.327,5.042 7.991,12.274 7.991,21.697c0,5.372 -1.237,10.061 -3.713,14.065c-2.475,4.005 -6.046,7.138 -10.714,9.4c5.139,1.746 8.852,4.706 11.139,8.881c2.286,4.176 3.43,9.33 3.43,15.463l0,8.987c0,3.161 0.318,6.098 0.954,8.811c0.637,2.713 1.733,4.847 3.289,6.404l0,1.628l-14.781,0c-1.603,-1.558 -2.628,-3.908 -3.076,-7.048c-0.448,-3.14 -0.672,-6.458 -0.672,-9.952l0,-8.713c0,-5.761 -1.308,-10.318 -3.925,-13.671c-2.616,-3.352 -6.211,-5.028 -10.784,-5.028l-19.448,0Zm0,-10.891l16.972,0c5.799,0 10.078,-1.571 12.836,-4.712c2.758,-3.141 4.137,-7.594 4.137,-13.357c0,-5.905 -1.344,-10.487 -4.031,-13.746c-2.687,-3.259 -6.765,-4.889 -12.234,-4.889l-17.68,0l0,36.704Z" style="fill:#414b24;fill-rule:nonzero;"/>
                <path d="M324.487,1218.95l0,-102.969l28.288,0c10.938,0 19.86,4.126 26.767,12.376c6.907,8.251 10.36,18.859 10.36,31.824l0,14.639c0,13.013 -3.453,23.621 -10.36,31.824c-6.907,8.204 -15.829,12.306 -26.767,12.306l-28.288,0Zm14.356,-92.078l0,81.187l13.436,0c7.214,0 12.907,-3.094 17.079,-9.281c4.173,-6.186 6.259,-14.192 6.259,-24.015l0,-14.807c0,-9.729 -2.086,-17.675 -6.259,-23.839c-4.172,-6.163 -9.865,-9.245 -17.079,-9.245l-13.436,0Z" style="fill:#414b24;fill-rule:nonzero;"/>
                <path d="M476.811,1192.93l-32.814,0l-7.496,26.025l-14.568,0l31.682,-102.969l13.861,0l31.4,102.969l-14.568,0l-7.497,-26.025Zm-29.49,-11.386l26.237,0l-12.871,-44.978l-0.424,0l-12.942,44.978Z" style="fill:#414b24;fill-rule:nonzero;"/>
                <path d="M586.917,1173.13l-38.26,0l0,45.827l-14.356,0l0,-102.969l58.768,0l0,10.891l-44.412,0l0,35.36l38.26,0l0,10.891Z" style="fill:#414b24;fill-rule:nonzero;"/>
                <path d="M644.689,1174.54l0,44.412l-14.356,0l0,-102.898l32.036,0c9.759,0 17.303,2.521 22.63,7.562c5.328,5.042 7.992,12.274 7.992,21.697c0,5.372 -1.238,10.061 -3.713,14.065c-2.475,4.005 -6.047,7.138 -10.714,9.4c5.139,1.746 8.852,4.706 11.138,8.881c2.287,4.176 3.43,9.33 3.43,15.463l0,8.987c0,3.161 0.318,6.098 0.955,8.811c0.636,2.713 1.733,4.847 3.288,6.404l0,1.628l-14.78,0c-1.603,-1.558 -2.628,-3.908 -3.076,-7.048c-0.448,-3.14 -0.672,-6.458 -0.672,-9.952l0,-8.713c0,-5.761 -1.309,-10.318 -3.925,-13.671c-2.617,-3.352 -6.212,-5.028 -10.785,-5.028l-19.448,0Zm0,-10.891l16.973,0c5.799,0 10.077,-1.571 12.836,-4.712c2.758,-3.141 4.137,-7.594 4.137,-13.357c0,-5.905 -1.344,-10.487 -4.031,-13.746c-2.688,-3.259 -6.766,-4.889 -12.235,-4.889l-17.68,0l0,36.704Z" style="fill:#414b24;fill-rule:nonzero;"/>
                <rect x="737.397" y="1115.98" width="14.285" height="102.968" style="fill:#414b24;fill-rule:nonzero;"/>
                <path d="M820.77,1172.77l-9.83,0l0,46.18l-14.356,0l0,-102.969l14.356,0l0,45.261l8.557,0l27.227,-45.261l17.115,0l-32.39,48.868l34.865,54.101l-17.539,0l-28.005,-46.18Z" style="fill:#414b24;fill-rule:nonzero;"/>
                <path d="M947.282,1192.93l-32.814,0l-7.496,26.025l-14.568,0l31.682,-102.969l13.861,0l31.4,102.969l-14.568,0l-7.497,-26.025Zm-29.49,-11.386l26.237,0l-12.871,-44.978l-0.424,0l-12.942,44.978Z" style="fill:#414b24;fill-rule:nonzero;"/>
                <path d="M1124.14,1115.98l0,71.357c0,10.655 -3.052,18.835 -9.158,24.54c-6.105,5.704 -14.085,8.557 -23.938,8.557c-9.713,0 -17.563,-2.853 -23.55,-8.557c-5.988,-5.705 -8.982,-13.885 -8.982,-24.54l0,-71.357l14.215,0l0,71.357c0,7.355 1.65,12.894 4.951,16.619c3.3,3.725 7.755,5.587 13.366,5.587c5.846,0 10.443,-1.792 13.79,-5.375c3.347,-3.583 5.021,-9.193 5.021,-16.831l0,-71.357l14.285,0Z" style="fill:#414b24;fill-rule:nonzero;"/>
                <path d="M1234.25,1218.95l-14.286,0l-39.037,-76.59l-0.424,0.141l0,76.449l-14.357,0l0,-102.969l14.357,0l39.037,76.378l0.424,-0.142l0,-76.236l14.286,0l0,102.969Z" style="fill:#414b24;fill-rule:nonzero;"/>
                <path d="M1278.23,1218.95l0,-102.969l28.288,0c10.938,0 19.86,4.126 26.767,12.376c6.907,8.251 10.361,18.859 10.361,31.824l0,14.639c0,13.013 -3.454,23.621 -10.361,31.824c-6.907,8.204 -15.829,12.306 -26.767,12.306l-28.288,0Zm14.356,-92.078l0,81.187l13.437,0c7.213,0 12.906,-3.094 17.078,-9.281c4.173,-6.186 6.259,-14.192 6.259,-24.015l0,-14.807c0,-9.729 -2.086,-17.675 -6.259,-23.839c-4.172,-6.163 -9.865,-9.245 -17.078,-9.245l-13.437,0Z" style="fill:#414b24;fill-rule:nonzero;"/>
                <rect x="1440.17" y="1115.98" width="14.285" height="102.968" style="fill:#414b24;fill-rule:nonzero;"/>
                <path d="M1546.45,1193c0,-4.856 -1.367,-8.84 -4.102,-11.951c-2.734,-3.112 -7.519,-5.846 -14.356,-8.204c-9.806,-2.966 -17.326,-6.839 -22.559,-11.619c-5.234,-4.779 -7.85,-11.101 -7.85,-18.965c0,-8.1 2.911,-14.751 8.734,-19.954c5.822,-5.204 13.307,-7.806 22.453,-7.806c9.524,0 17.197,3.006 23.02,9.017c5.822,6.011 8.639,13.26 8.451,21.746l-0.142,0.425l-13.79,0c0,-6.008 -1.544,-10.893 -4.632,-14.655c-3.089,-3.761 -7.438,-5.642 -13.048,-5.642c-5.328,0 -9.441,1.568 -12.341,4.703c-2.899,3.135 -4.349,7.131 -4.349,11.987c0,4.385 1.556,8.074 4.667,11.068c3.112,2.994 8.251,5.716 15.417,8.168c9.382,2.927 16.525,6.915 21.428,11.966c4.904,5.051 7.355,11.588 7.355,19.613c0,8.449 -2.899,15.152 -8.698,20.108c-5.799,4.957 -13.413,7.435 -22.843,7.435c-9.193,0 -17.22,-2.723 -24.08,-8.168c-6.86,-5.446 -10.172,-13.119 -9.936,-23.02l0.141,-0.424l13.791,0c0,7.048 1.85,12.263 5.551,15.646c3.701,3.383 8.546,5.075 14.533,5.075c5.375,0 9.583,-1.497 12.624,-4.491c3.041,-2.994 4.561,-7.013 4.561,-12.058Z" style="fill:#414b24;fill-rule:nonzero;"/>
                <path d="M1614.48,1208.06l40.169,0l0,10.891l-54.525,0l0,-102.969l14.356,0l0,92.078Z" style="fill:#414b24;fill-rule:nonzero;"/>
                <path d="M1738.09,1192.93l-32.814,0l-7.497,26.025l-14.568,0l31.683,-102.969l13.861,0l31.399,102.969l-14.568,0l-7.496,-26.025Zm-29.491,-11.386l26.238,0l-12.871,-44.978l-0.425,0l-12.942,44.978Z" style="fill:#414b24;fill-rule:nonzero;"/>
                <path d="M1813.69,1115.98l24.044,84.016l0.425,0l24.115,-84.016l18.529,0l0,102.969l-14.215,0l0,-39.533l1.273,-39.603l-0.424,-0.071l-24.752,79.207l-9.477,0l-24.681,-79.136l-0.424,0.071l1.343,39.532l0,39.533l-14.214,0l0,-102.969l18.458,0Z" style="fill:#414b24;fill-rule:nonzero;"/>
                <path d="M1971.46,1193c0,-4.856 -1.367,-8.84 -4.102,-11.951c-2.734,-3.112 -7.52,-5.846 -14.356,-8.204c-9.806,-2.966 -17.326,-6.839 -22.56,-11.619c-5.233,-4.779 -7.85,-11.101 -7.85,-18.965c0,-8.1 2.912,-14.751 8.734,-19.954c5.823,-5.204 13.307,-7.806 22.454,-7.806c9.524,0 17.197,3.006 23.019,9.017c5.823,6.011 8.64,13.26 8.451,21.746l-0.141,0.425l-13.791,0c0,-6.008 -1.544,-10.893 -4.632,-14.655c-3.088,-3.761 -7.437,-5.642 -13.048,-5.642c-5.327,0 -9.441,1.568 -12.34,4.703c-2.9,3.135 -4.349,7.131 -4.349,11.987c0,4.385 1.555,8.074 4.667,11.068c3.112,2.994 8.251,5.716 15.417,8.168c9.382,2.927 16.525,6.915 21.428,11.966c4.903,5.051 7.355,11.588 7.355,19.613c0,8.449 -2.9,15.152 -8.699,20.108c-5.799,4.957 -13.413,7.435 -22.842,7.435c-9.194,0 -17.22,-2.723 -24.08,-8.168c-6.86,-5.446 -10.172,-13.119 -9.936,-23.02l0.141,-0.424l13.791,0c0,7.048 1.85,12.263 5.551,15.646c3.701,3.383 8.545,5.075 14.533,5.075c5.375,0 9.582,-1.497 12.623,-4.491c3.041,-2.994 4.562,-7.013 4.562,-12.058Z" style="fill:#414b24;fill-rule:nonzero;"/>
                <path d="M2084.74,1126.87l-26.449,0l0,92.078l-14.356,0l0,-92.078l-26.308,0l0,-10.891l67.113,0l0,10.891Z" style="fill:#414b24;fill-rule:nonzero;"/>
                <path d="M2184.95,1115.98l0,71.357c0,10.655 -3.053,18.835 -9.158,24.54c-6.106,5.704 -14.085,8.557 -23.939,8.557c-9.712,0 -17.562,-2.853 -23.55,-8.557c-5.987,-5.705 -8.981,-13.885 -8.981,-24.54l0,-71.357l14.214,0l0,71.357c0,7.355 1.651,12.894 4.951,16.619c3.3,3.725 7.755,5.587 13.366,5.587c5.846,0 10.443,-1.792 13.79,-5.375c3.348,-3.583 5.021,-9.193 5.021,-16.831l0,-71.357l14.286,0Z" style="fill:#414b24;fill-rule:nonzero;"/>
                <path d="M2226.95,1218.95l0,-102.969l28.288,0c10.938,0 19.86,4.126 26.767,12.376c6.907,8.251 10.361,18.859 10.361,31.824l0,14.639c0,13.013 -3.454,23.621 -10.361,31.824c-6.907,8.204 -15.829,12.306 -26.767,12.306l-28.288,0Zm14.356,-92.078l0,81.187l13.437,0c7.213,0 12.906,-3.094 17.078,-9.281c4.173,-6.186 6.259,-14.192 6.259,-24.015l0,-14.807c0,-9.729 -2.086,-17.675 -6.259,-23.839c-4.172,-6.163 -9.865,-9.245 -17.078,-9.245l-13.437,0Z" style="fill:#414b24;fill-rule:nonzero;"/>
                <rect x="2333.45" y="1115.98" width="14.285" height="102.968" style="fill:#414b24;fill-rule:nonzero;"/>
                <path d="M2445.18,1171.07l-38.189,0l0,36.987l44.271,0l0,10.891l-58.627,0l0,-102.969l58.202,0l0,10.891l-43.846,0l0,33.309l38.189,0l0,10.891Z" style="fill:#414b24;fill-rule:nonzero;"/>
                <path d="M2556.63,1218.95l-14.286,0l-39.037,-76.59l-0.424,0.141l0,76.449l-14.356,0l0,-102.969l14.356,0l39.037,76.378l0.424,-0.142l0,-76.236l14.286,0l0,102.969Z" style="fill:#414b24;fill-rule:nonzero;"/>
                <g id="fid-nahost" transform="matrix(5.81972,0,0,5.81972,348.735,1046.25)">
                    <path d="M32.556,-22.156l-18.091,0l0,22.156l-10.437,0l0,-53.32l31.714,0l0,8.313l-21.277,0l0,14.538l18.091,0l0,8.313Z" style="fill:#414b24;fill-rule:nonzero;"/>
                    <rect x="41.785" y="-53.32" width="10.364" height="53.32" style="fill:#414b24;fill-rule:nonzero;"/>
                    <path d="M60.791,0l0,-53.32l16.113,0c5.469,0 9.986,2.069 13.55,6.207c3.565,4.138 5.347,9.467 5.347,15.985l0,8.972c0,6.519 -1.782,11.841 -5.347,15.967c-3.564,4.126 -8.081,6.189 -13.55,6.189l-16.113,0Zm10.437,-45.007l0,36.694l5.09,0c2.906,0 5.146,-1.265 6.72,-3.794c1.575,-2.529 2.362,-5.883 2.362,-10.062l0,-9.055c0,-4.155 -0.787,-7.491 -2.362,-10.008c-1.574,-2.517 -3.814,-3.775 -6.72,-3.775l-5.09,0Z" style="fill:#414b24;fill-rule:nonzero;"/>
                    <path d="M149.202,0l-10.364,0l-16.296,-34.094l-0.22,0.073l0,34.021l-10.437,0l0,-53.32l10.437,0l16.296,34.057l0.22,-0.073l0,-33.984l10.364,0l0,53.32Z" style="fill:#414b24;fill-rule:nonzero;"/>
                    <path d="M175.972,0c-0.293,-0.659 -0.556,-1.379 -0.788,-2.161c-0.232,-0.781 -0.409,-1.574 -0.531,-2.38c-0.976,1.611 -2.166,2.899 -3.57,3.864c-1.404,0.964 -3.034,1.446 -4.889,1.446c-3.272,0 -5.89,-1.074 -7.855,-3.223c-1.966,-2.148 -2.948,-5.017 -2.948,-8.606c0,-3.881 1.251,-6.897 3.753,-9.045c2.503,-2.148 6.22,-3.223 11.151,-3.223l3.919,0l0,-3.222c0,-1.929 -0.348,-3.412 -1.044,-4.45c-0.696,-1.037 -1.739,-1.556 -3.131,-1.556c-1.172,0 -2.051,0.415 -2.637,1.245c-0.586,0.83 -0.879,2.039 -0.879,3.625l-10.07,-0.036l-0.11,-0.22c-0.122,-3.442 1.153,-6.372 3.827,-8.789c2.673,-2.417 6.195,-3.625 10.565,-3.625c4.126,0 7.477,1.202 10.052,3.607c2.576,2.405 3.864,5.829 3.864,10.272l0,16.04c0,1.953 0.134,3.772 0.403,5.457c0.268,1.684 0.683,3.344 1.245,4.98l-10.327,0Zm-6.775,-7.068c1.05,0 2.02,-0.281 2.911,-0.842c0.891,-0.562 1.593,-1.282 2.106,-2.161l0,-7.287l-3.919,0c-1.587,0 -2.734,0.549 -3.442,1.648c-0.708,1.098 -1.062,2.49 -1.062,4.174c0,1.319 0.305,2.393 0.916,3.223c0.61,0.83 1.44,1.245 2.49,1.245Z" style="fill:#414b24;fill-rule:nonzero;"/>
                    <path d="M201.35,-34.9c1.025,-1.733 2.258,-3.076 3.699,-4.028c1.44,-0.952 3.027,-1.428 4.761,-1.428c3.515,0 6.274,1.397 8.276,4.193c2.002,2.795 3.003,7.11 3.003,12.945l0,23.218l-10.437,0l0,-23.318c0,-3.275 -0.385,-5.548 -1.154,-6.819c-0.769,-1.271 -1.971,-1.906 -3.607,-1.906c-0.976,0 -1.843,0.213 -2.6,0.641c-0.757,0.428 -1.404,1.021 -1.941,1.778l0,29.624l-10.4,0l0,-57.129l10.4,0l0,22.229Z" style="fill:#414b24;fill-rule:nonzero;"/>
                    <path d="M226.436,-22.229c0,-5.322 1.409,-9.674 4.229,-13.055c2.82,-3.382 6.769,-5.072 11.847,-5.072c5.078,0 9.033,1.69 11.865,5.072c2.832,3.381 4.248,7.733 4.248,13.055l0,4.907c0,5.371 -1.416,9.729 -4.248,13.074c-2.832,3.345 -6.774,5.017 -11.828,5.017c-5.103,0 -9.064,-1.672 -11.884,-5.017c-2.82,-3.345 -4.229,-7.703 -4.229,-13.074l0,-4.907Zm10.363,4.892c0,3.057 0.428,5.453 1.282,7.189c0.855,1.736 2.344,2.604 4.468,2.604c2.051,0 3.509,-0.874 4.376,-2.622c0.867,-1.749 1.3,-4.139 1.3,-7.171l0,-4.914c0,-2.983 -0.433,-5.361 -1.3,-7.133c-0.867,-1.773 -2.338,-2.659 -4.413,-2.659c-2.075,0 -3.546,0.892 -4.413,2.677c-0.866,1.785 -1.3,4.157 -1.3,7.115l0,4.914Z" style="fill:#414b24;fill-rule:nonzero;"/>
                    <path d="M281.367,-10.364c0,-1.123 -0.439,-2.093 -1.318,-2.911c-0.879,-0.818 -2.564,-1.825 -5.054,-3.021c-3.979,-1.49 -6.964,-3.174 -8.954,-5.054c-1.989,-1.88 -2.984,-4.321 -2.984,-7.324c0,-3.223 1.275,-5.976 3.827,-8.258c2.551,-2.283 5.926,-3.424 10.125,-3.424c4.395,0 7.898,1.171 10.511,3.515c2.612,2.344 3.869,5.335 3.772,8.972l-0.11,0.22l-10.035,0c0,-1.66 -0.341,-2.978 -1.025,-3.955c-0.684,-0.977 -1.733,-1.465 -3.149,-1.465c-1.123,0 -2.076,0.379 -2.857,1.135c-0.781,0.757 -1.172,1.673 -1.172,2.747c0,1.172 0.391,2.118 1.172,2.838c0.781,0.72 2.478,1.703 5.091,2.948c4.15,1.416 7.226,3.095 9.228,5.036c2.002,1.94 3.003,4.486 3.003,7.635c0,3.369 -1.343,6.128 -4.028,8.276c-2.686,2.149 -6.214,3.223 -10.584,3.223c-4.565,0 -8.179,-1.331 -10.84,-3.992c-2.661,-2.661 -3.93,-5.664 -3.808,-9.008l0.073,-0.22l9.521,0c0.049,2.099 0.538,3.613 1.465,4.541c0.928,0.928 2.21,1.391 3.846,1.391c1.391,0 2.453,-0.341 3.186,-1.025c0.732,-0.684 1.098,-1.623 1.098,-2.82Z" style="fill:#414b24;fill-rule:nonzero;"/>
                    <path d="M309.016,-49.475l0,9.851l5.493,0l0,7.544l-5.493,0l0,19.885c0,1.612 0.232,2.765 0.696,3.461c0.464,0.696 1.099,1.044 1.904,1.044c0.635,0 1.172,-0.031 1.612,-0.092c0.439,-0.061 0.927,-0.165 1.464,-0.311l0.806,7.91c-1.099,0.342 -2.148,0.586 -3.149,0.732c-1.001,0.147 -2.137,0.22 -3.406,0.22c-3.345,0 -5.902,-1.031 -7.672,-3.094c-1.77,-2.063 -2.655,-5.341 -2.655,-9.833l0,-19.922l-4.688,0l0,-7.544l4.688,0l0,-9.851l10.4,0Z" style="fill:#414b24;fill-rule:nonzero;"/>
                </g>
            </g>
        </g>
    </g>
</svg>
