<?xml version="1.0" encoding="UTF-8" standalone="no"?>
<!DOCTYPE svg PUBLIC "-//W3C//DTD SVG 1.1//EN" "http://www.w3.org/Graphics/SVG/1.1/DTD/svg11.dtd">
<svg width="100%" height="100%" viewBox="0 0 310 50" version="1.1" xmlns="http://www.w3.org/2000/svg" xmlns:xlink="http://www.w3.org/1999/xlink" xml:space="preserve" xmlns:serif="http://www.serif.com/" style="fill-rule:evenodd;clip-rule:evenodd;stroke-linejoin:round;stroke-miterlimit:1.41421;">
    <g transform="matrix(1,0,0,1,-240.412,-192.601)">
        <path d="M388.281,209.327L388.281,229.636C390.426,227.011 392.277,225.917 393.053,225.573C393.124,225.54 393.128,225.492 393.124,225.469C393.12,225.433 393.083,225.394 392.99,225.395C392.607,225.401 391.818,225.616 391.302,225.806C391.182,225.85 391.162,225.77 391.21,225.68C391.323,225.469 391.827,224.995 393.337,224.386C395.83,223.379 398.406,223.489 399.587,224.08C400.109,224.344 400.329,224.868 400.392,225.058C400.4,225.08 400.39,225.094 400.371,225.093C398.54,225.072 397.716,225.164 397.169,225.332C397.005,225.38 396.988,225.503 397.133,225.611C397.392,225.807 398.195,226.013 398.514,226.067C398.61,226.083 398.662,226.052 398.722,225.982C398.792,225.904 398.878,225.793 398.954,225.718C399.013,225.66 399.044,225.656 399.159,225.644C399.328,225.635 399.719,225.626 400.063,225.635C401.667,225.662 403.458,226.06 403.458,228.331C403.458,229.144 403.123,229.944 402.965,230.187C402.862,230.347 402.696,230.34 402.707,230.1C402.75,228.986 402.57,228.528 400.805,228.528C399.913,228.528 398.504,228.656 397.871,228.955C397.637,229.063 397.614,229.267 397.852,229.245C398.202,229.215 399.58,229.119 400.556,229.119C401.202,229.119 401.71,229.184 401.894,229.441C401.938,229.503 401.946,229.621 401.792,229.598C401.73,229.589 401.566,229.572 401.338,229.572C399.307,229.572 397.322,230.767 397.322,232.841C397.322,236.138 402.172,237.456 408.238,237.456C413.123,237.456 416.411,236.407 416.411,236.407L416.411,209.326L388.281,209.326L388.281,209.327Z" style="fill:rgb(38,66,115);fill-rule:nonzero;"/>
    </g>
    <g transform="matrix(1,0,0,1,-240.412,-192.601)">
        <path d="M516.482,235.312L518.445,232.493L518.445,231.982L515.416,231.982L515.395,232.589L517.626,232.589L517.634,232.606L517.285,233.083L515.311,235.911L515.311,236.415L518.468,236.415L518.489,235.808L516.136,235.808L516.129,235.786L516.482,235.312ZM513.369,232.529L514.463,232.529L514.463,231.982L513.369,231.982L513.369,230.835L512.818,230.894L512.685,231.983L512.044,231.983L512.044,232.53L512.661,232.53L512.661,235.219C512.661,235.994 513.054,236.415 513.814,236.415C514.053,236.415 514.297,236.372 514.432,236.305L514.387,235.771C514.297,235.808 514.141,235.83 514.014,235.83C513.613,235.83 513.368,235.647 513.368,235.196L513.368,232.529L513.369,232.529ZM510.941,230.855C510.941,230.61 510.793,230.476 510.488,230.476C510.184,230.476 510.035,230.61 510.035,230.855C510.035,231.14 510.184,231.234 510.488,231.234C510.793,231.234 510.941,231.117 510.941,230.855M506.596,233.174C506.596,232.817 506.932,232.59 507.459,232.59C507.817,232.59 508.242,232.671 508.613,232.823L508.672,232.232C508.317,232.069 507.907,231.982 507.476,231.982C506.454,231.982 505.928,232.47 505.928,233.21C505.928,234.673 508.198,234.215 508.198,235.198C508.198,235.604 507.928,235.911 507.282,235.911C506.857,235.911 506.35,235.777 506.016,235.532L505.928,236.132C506.268,236.38 506.76,236.505 507.289,236.505C508.385,236.505 508.851,235.948 508.851,235.132C508.852,233.616 506.596,234.098 506.596,233.174M505.012,234.295C505.021,234.199 505.028,234.062 505.028,233.952C505.028,232.605 504.337,231.982 503.28,231.982C502.057,231.982 501.449,232.753 501.449,234.08C501.449,235.741 502.05,236.505 503.511,236.505C504.046,236.505 504.508,236.38 504.88,236.178L504.798,235.582C504.417,235.769 504.038,235.867 503.591,235.867C502.638,235.867 502.207,235.462 502.168,234.295L505.012,234.295ZM504.38,233.811L502.152,233.811C502.198,232.984 502.533,232.59 503.285,232.59C503.928,232.59 504.365,232.928 504.38,233.811M500.569,234.184C500.569,232.501 499.916,231.898 498.879,231.898C498.387,231.898 497.934,232.063 497.613,232.397L497.599,232.388L497.605,231.794L497.605,230.492L496.908,230.536L496.908,236.415L497.376,236.415L497.488,235.955L497.509,235.944C497.784,236.289 498.245,236.498 498.796,236.498C499.922,236.498 500.569,235.853 500.569,234.184M499.854,234.199C499.854,235.577 499.394,235.911 498.702,235.911C498.159,235.911 497.786,235.658 497.606,235.367L497.606,233.066C497.837,232.731 498.224,232.538 498.693,232.538C499.422,232.538 499.854,232.85 499.854,234.199M495.797,232.753L495.843,232.04C495.724,232.002 495.567,231.982 495.404,231.982C494.801,231.982 494.318,232.352 494.042,232.985L494.026,232.985L493.967,232.04L493.401,232.079L493.401,236.415L494.107,236.415L494.107,234.206C494.107,233.271 494.666,232.694 495.36,232.694C495.514,232.694 495.662,232.71 495.797,232.753M492.084,234.957L492.084,231.982L491.386,231.982L491.386,234.944C491.386,235.544 491.034,235.852 490.365,235.852C489.678,235.852 489.338,235.539 489.338,234.944L489.338,231.982L488.64,231.982L488.64,234.957C488.64,235.933 489.196,236.498 490.357,236.498C491.525,236.498 492.084,235.938 492.084,234.957M486.605,232.529L487.701,232.529L487.701,231.982L486.605,231.982L486.605,230.835L486.055,230.894L485.923,231.983L485.281,231.983L485.281,232.53L485.899,232.53L485.899,235.219C485.899,235.994 486.294,236.415 487.052,236.415C487.289,236.415 487.537,236.372 487.669,236.305L487.625,235.771C487.537,235.808 487.379,235.83 487.254,235.83C486.849,235.83 486.604,235.647 486.604,235.196L486.604,232.529L486.605,232.529ZM483.422,236.415L484.128,236.415L484.128,230.5L483.422,230.544L483.422,236.415ZM481.963,234.957L481.963,231.982L481.265,231.982L481.265,234.944C481.265,235.544 480.914,235.852 480.244,235.852C479.558,235.852 479.217,235.539 479.217,234.944L479.217,231.982L478.517,231.982L478.517,234.957C478.517,235.933 479.075,236.498 480.237,236.498C481.405,236.498 481.963,235.938 481.963,234.957M477.715,236.415L475.676,233.476L477.604,230.835L476.696,230.835L474.984,233.194L474.158,233.194L474.158,230.835L473.399,230.835L473.399,236.415L474.158,236.415L474.158,233.839L474.97,233.839L476.763,236.415L477.715,236.415ZM469.846,232.753L469.893,232.04C469.773,232.002 469.618,231.982 469.454,231.982C468.851,231.982 468.368,232.352 468.091,232.985L468.077,232.985L468.016,232.04L467.453,232.079L467.453,236.415L468.159,236.415L468.159,234.206C468.159,233.271 468.717,232.694 469.409,232.694C469.564,232.694 469.714,232.71 469.846,232.753M466.312,234.295C466.321,234.199 466.329,234.062 466.329,233.952C466.329,232.605 465.637,231.982 464.581,231.982C463.358,231.982 462.751,232.753 462.751,234.08C462.751,235.741 463.352,236.505 464.81,236.505C465.347,236.505 465.808,236.38 466.18,236.178L466.099,235.582C465.718,235.769 465.339,235.867 464.892,235.867C463.939,235.867 463.507,235.462 463.47,234.295L466.312,234.295ZM465.68,233.811L463.455,233.811C463.498,232.984 463.834,232.59 464.585,232.59C465.229,232.59 465.664,232.928 465.68,233.811M460.984,236.415L461.681,236.415L461.681,233.476C461.681,232.464 461.154,231.898 460.187,231.898C459.718,231.898 459.263,232.057 458.943,232.388L458.927,232.382L458.936,231.788L458.936,230.5L458.237,230.544L458.237,236.415L458.936,236.415L458.936,233.058C459.115,232.777 459.517,232.553 459.978,232.553C460.663,232.553 460.984,232.88 460.984,233.476L460.984,236.415ZM454.813,234.203C454.813,233.083 455.169,232.628 456.13,232.628C456.448,232.628 456.769,232.708 457.03,232.823L457.074,232.197C456.785,232.069 456.384,231.982 455.987,231.982C454.665,231.982 454.083,232.735 454.083,234.203C454.083,235.802 454.722,236.515 455.966,236.515C456.435,236.515 456.853,236.389 457.111,236.209L457.061,235.635C456.792,235.794 456.465,235.88 456.117,235.88C455.268,235.88 454.813,235.429 454.813,234.203M450.987,233.174C450.987,232.817 451.322,232.59 451.851,232.59C452.208,232.59 452.631,232.671 453.003,232.823L453.064,232.232C452.709,232.069 452.297,231.982 451.865,231.982C450.847,231.982 450.318,232.47 450.318,233.21C450.318,234.673 452.588,234.215 452.588,235.198C452.588,235.604 452.321,235.911 451.673,235.911C451.248,235.911 450.742,235.777 450.407,235.532L450.318,236.132C450.66,236.38 451.152,236.505 451.678,236.505C452.773,236.505 453.241,235.948 453.241,235.132C453.242,233.616 450.987,234.098 450.987,233.174M449.045,230.855C449.045,230.61 448.897,230.476 448.591,230.476C448.287,230.476 448.139,230.61 448.139,230.855C448.139,231.14 448.287,231.234 448.591,231.234C448.896,231.234 449.045,231.117 449.045,230.855M446.977,235.007C446.977,233.797 445.339,233.597 445.339,233.218C445.339,232.908 446.309,232.534 446.309,231.794C446.309,231.207 445.756,230.74 444.959,230.74C443.842,230.74 443.225,231.404 443.225,232.651L443.225,237.525L443.924,237.525L443.924,232.586C443.924,231.758 444.267,231.347 444.944,231.347C445.37,231.347 445.637,231.545 445.637,231.817C445.637,232.409 444.586,232.761 444.586,233.305C444.586,233.993 446.262,234.119 446.262,235.03C446.262,235.527 445.823,235.768 445.204,235.768C444.926,235.768 444.658,235.702 444.43,235.598L444.387,236.24C444.67,236.358 445.023,236.416 445.325,236.416C446.314,236.415 446.977,235.879 446.977,235.007M441.863,234.957L441.863,231.982L441.164,231.982L441.164,234.944C441.164,235.544 440.814,235.852 440.144,235.852C439.458,235.852 439.117,235.539 439.117,234.944L439.117,231.982L438.418,231.982L438.418,234.957C438.418,235.933 438.975,236.498 440.137,236.498C441.304,236.498 441.863,235.938 441.863,234.957M437.345,234.295C437.352,234.199 437.36,234.062 437.36,233.952C437.36,232.605 436.669,231.982 435.612,231.982C434.39,231.982 433.781,232.753 433.781,234.08C433.781,235.741 434.384,236.505 435.843,236.505C436.38,236.505 436.839,236.38 437.211,236.178L437.13,235.582C436.751,235.769 436.372,235.867 435.925,235.867C434.972,235.867 434.54,235.462 434.503,234.295L437.345,234.295ZM436.713,233.811L434.486,233.811C434.531,232.984 434.867,232.59 435.619,232.59C436.26,232.59 436.697,232.928 436.713,233.811M433.08,232.753L433.125,232.04C433.006,232.002 432.85,231.982 432.687,231.982C432.084,231.982 431.6,232.352 431.325,232.985L431.311,232.985L431.25,232.04L430.686,232.079L430.686,236.415L431.392,236.415L431.392,234.206C431.392,233.271 431.95,232.694 432.642,232.694C432.799,232.694 432.947,232.71 433.08,232.753M429.59,232.583C429.59,231.371 429.01,230.835 427.642,230.835L425.789,230.835L425.789,236.415L426.545,236.415L426.545,234.323L427.642,234.323C429.023,234.323 429.59,233.732 429.59,232.583M428.811,232.583C428.811,233.439 428.43,233.685 427.642,233.685L426.545,233.685L426.545,231.497L427.642,231.497C428.453,231.497 428.811,231.771 428.811,232.583M448.94,231.982L448.234,232.018L448.234,236.414L448.94,236.414L448.94,231.982ZM510.84,231.982L510.132,232.018L510.132,236.414L510.84,236.414L510.84,231.982Z" style="fill-rule:nonzero;"/>
    </g>
    <g transform="matrix(1,0,0,1,-240.412,-192.601)">
        <path d="M425.789,225.128L427.119,225.128L427.119,219.314L425.789,219.314L425.789,225.128ZM432.354,225.128L432.354,222.135C432.354,220.964 431.726,220.336 430.734,220.336C430.246,220.336 429.787,220.5 429.437,220.804L429.26,220.399L428.393,220.453L428.393,225.129L429.601,225.129L429.601,221.764C429.763,221.541 430.089,221.408 430.392,221.408C430.89,221.408 431.152,221.616 431.152,222.137L431.152,225.13L432.354,225.13L432.354,225.128ZM436.549,223.672C436.549,222.093 434.401,222.508 434.401,221.815C434.401,221.583 434.618,221.431 435.014,221.431C435.362,221.431 435.883,221.504 436.27,221.663L436.372,220.685C435.976,220.522 435.511,220.431 435.036,220.431C433.826,220.431 433.255,221.035 433.255,221.865C433.255,223.468 435.434,223.044 435.434,223.777C435.434,224.048 435.232,224.237 434.752,224.237C434.347,224.237 433.796,224.131 433.408,223.911L433.286,224.894C433.681,225.112 434.192,225.219 434.759,225.219C436.029,225.22 436.549,224.594 436.549,223.672M439.766,221.328L439.766,220.432L438.719,220.432L438.719,219.314L437.773,219.396L437.573,220.432L436.991,220.432L436.991,221.328L437.518,221.328L437.518,223.707C437.518,224.584 437.975,225.128 438.913,225.128C439.245,225.128 439.558,225.065 439.72,224.995L439.65,224.122C439.566,224.152 439.402,224.176 439.277,224.176C438.906,224.176 438.72,224.026 438.72,223.67L438.72,221.328L439.766,221.328ZM441.951,225.128L441.951,220.432L440.721,220.483L440.721,225.129L441.951,225.129L441.951,225.128ZM442.021,219.415C442.021,219.074 441.813,218.894 441.34,218.894C440.873,218.894 440.651,219.081 440.651,219.415C440.651,219.791 440.874,219.926 441.34,219.926C441.812,219.926 442.021,219.753 442.021,219.415M445.672,221.328L445.672,220.432L444.626,220.432L444.626,219.314L443.682,219.396L443.48,220.432L442.899,220.432L442.899,221.328L443.426,221.328L443.426,223.707C443.426,224.584 443.881,225.128 444.819,225.128C445.153,225.128 445.464,225.065 445.628,224.995L445.558,224.122C445.472,224.152 445.31,224.176 445.185,224.176C444.814,224.176 444.627,224.026 444.627,223.67L444.627,221.328L445.672,221.328ZM450.385,220.432L449.184,220.432L449.184,223.447C449.184,223.929 448.937,224.153 448.41,224.153C447.881,224.153 447.634,223.912 447.634,223.447L447.634,220.432L446.434,220.432L446.434,223.469C446.434,224.584 447.076,225.213 448.411,225.213C449.744,225.213 450.387,224.609 450.387,223.469L450.387,220.432L450.385,220.432ZM453.864,221.328L453.864,220.432L452.818,220.432L452.818,219.314L451.873,219.396L451.672,220.432L451.091,220.432L451.091,221.328L451.617,221.328L451.617,223.707C451.617,224.584 452.074,225.128 453.012,225.128C453.346,225.128 453.656,225.065 453.82,224.995L453.749,224.122C453.665,224.152 453.5,224.176 453.379,224.176C453.007,224.176 452.819,224.026 452.819,223.67L452.819,221.328L453.864,221.328Z" style="fill-rule:nonzero;"/>
    </g>
    <g transform="matrix(1,0,0,1,-240.412,-192.601)">
        <path d="M425.789,215.141L427.119,215.141L427.119,209.329L425.789,209.329L425.789,215.141ZM432.564,212.776C432.564,211.055 431.88,210.358 430.796,210.358C430.369,210.358 429.957,210.491 429.64,210.776L429.616,210.762L429.632,210.142L429.632,209.047L428.432,209.1L428.432,215.14L429.246,215.14L429.4,214.752C429.686,215.041 430.121,215.232 430.648,215.232C431.85,215.233 432.564,214.498 432.564,212.776ZM431.323,212.801C431.323,214.017 430.997,214.266 430.455,214.266C430.051,214.266 429.779,214.087 429.632,213.864L429.632,211.809C429.803,211.56 430.098,211.413 430.447,211.413C431.02,211.412 431.323,211.63 431.323,212.801M435.602,215.227C436.2,215.227 436.743,215.104 437.139,214.926L437.006,213.955C436.602,214.112 436.194,214.187 435.75,214.187C434.944,214.187 434.562,213.892 434.501,213.109L437.238,213.109C437.261,212.946 437.269,212.719 437.269,212.545C437.269,211.056 436.533,210.358 435.331,210.358C433.92,210.358 433.262,211.232 433.262,212.729C433.262,214.373 433.982,215.227 435.602,215.227M434.479,212.313C434.532,211.629 434.758,211.357 435.339,211.357C435.844,211.357 436.154,211.622 436.169,212.313L434.479,212.313ZM439.379,215.141L439.379,212.836C439.379,212.069 439.844,211.622 440.472,211.622C440.659,211.622 440.836,211.651 440.984,211.696L441.06,210.515C440.936,210.473 440.758,210.443 440.549,210.443C440.014,210.443 439.557,210.722 439.262,211.288L439.239,211.288L439.13,210.506L438.17,210.552L438.17,215.141L439.379,215.141ZM445.834,212.808C445.834,211.086 445.186,210.359 443.688,210.359C442.2,210.359 441.534,211.087 441.534,212.808C441.534,214.538 442.2,215.248 443.688,215.248C445.186,215.248 445.834,214.538 445.834,212.808M442.781,212.808C442.781,211.662 443.021,211.351 443.687,211.351C444.347,211.351 444.587,211.662 444.587,212.808C444.587,213.955 444.347,214.266 443.687,214.266C443.028,214.266 442.781,213.964 442.781,212.808M446.659,212.925L448.875,212.925L448.875,212.059L446.659,212.059L446.659,212.925ZM453.418,215.141L454.875,215.141L452.844,209.329L451.285,209.329L449.278,215.141L450.658,215.141L450.983,214.009L453.091,214.009L453.418,215.141ZM452.045,210.312L452.068,210.312L452.222,210.924L452.781,212.918L451.3,212.918L451.884,210.924L452.045,210.312ZM461.953,215.141L461.953,212.119C461.953,210.946 461.301,210.359 460.373,210.359C459.836,210.359 459.373,210.552 459.054,210.987C458.807,210.562 458.403,210.359 457.813,210.359C457.379,210.359 456.946,210.545 456.62,210.856L456.427,210.414L455.56,210.475L455.56,215.142L456.769,215.142L456.769,211.777C456.908,211.561 457.187,211.421 457.474,211.421C457.892,211.421 458.157,211.624 458.157,212.106L458.157,215.143L459.357,215.143L459.357,212.106C459.357,211.647 459.644,211.421 460.048,211.421C460.49,211.421 460.753,211.653 460.753,212.142L460.753,215.143L461.953,215.143L461.953,215.141ZM465.154,215.227C465.753,215.227 466.295,215.104 466.689,214.926L466.558,213.955C466.155,214.112 465.744,214.187 465.303,214.187C464.495,214.187 464.115,213.892 464.053,213.109L466.789,213.109C466.812,212.946 466.821,212.719 466.821,212.545C466.821,211.056 466.084,210.358 464.883,210.358C463.471,210.358 462.813,211.232 462.813,212.729C462.814,214.373 463.535,215.227 465.154,215.227M464.031,212.313C464.084,211.629 464.31,211.357 464.892,211.357C465.396,211.357 465.705,211.622 465.722,212.313L464.031,212.313ZM468.931,215.141L468.931,212.836C468.931,212.069 469.395,211.622 470.024,211.622C470.21,211.622 470.389,211.651 470.536,211.696L470.614,210.515C470.491,210.473 470.311,210.443 470.102,210.443C469.569,210.443 469.11,210.722 468.815,211.288L468.792,211.288L468.685,210.506L467.724,210.552L467.724,215.141L468.931,215.141ZM472.801,215.141L472.801,210.444L471.569,210.5L471.569,215.142L472.801,215.142L472.801,215.141ZM472.869,209.428C472.869,209.087 472.66,208.909 472.187,208.909C471.722,208.909 471.498,209.096 471.498,209.428C471.498,209.809 471.723,209.938 472.187,209.938C472.66,209.938 472.869,209.768 472.869,209.428M475.295,209.048L474.096,209.101L474.096,215.141L475.295,215.141L475.295,213.119L475.908,213.119L476.91,215.141L478.265,215.141L476.939,212.576L478.218,210.444L476.884,210.444L475.907,212.14L475.294,212.14L475.294,209.048L475.295,209.048ZM481.592,215.141L482.514,215.141L482.514,212.236C482.514,210.946 482.034,210.351 480.647,210.351C480.042,210.351 479.506,210.459 479.034,210.661L479.135,211.623C479.568,211.444 479.909,211.365 480.43,211.365C481.074,211.365 481.322,211.585 481.322,212.056L481.322,212.327C481.074,212.249 480.771,212.195 480.423,212.195C479.353,212.195 478.748,212.795 478.748,213.659C478.748,214.64 479.312,215.14 480.205,215.14C480.741,215.14 481.19,214.947 481.478,214.606L481.499,214.614L481.592,215.141ZM481.32,213.716C481.32,213.955 480.949,214.188 480.535,214.188C480.14,214.188 479.869,214.037 479.869,213.607C479.869,213.221 480.119,213.026 480.652,213.026C480.971,213.026 481.204,213.075 481.32,213.119L481.32,213.716ZM487.545,215.141L487.545,212.151C487.545,210.98 486.916,210.351 485.926,210.351C485.438,210.351 484.979,210.516 484.631,210.817L484.452,210.414L483.584,210.47L483.584,215.142L484.795,215.142L484.795,211.777C484.957,211.55 485.281,211.421 485.584,211.421C486.08,211.421 486.346,211.632 486.346,212.152L486.346,215.142L487.545,215.142L487.545,215.141ZM489.986,215.141L489.986,210.444L488.756,210.5L488.756,215.142L489.986,215.142L489.986,215.141ZM490.057,209.428C490.057,209.087 489.848,208.909 489.375,208.909C488.91,208.909 488.686,209.096 488.686,209.428C488.686,209.809 488.911,209.938 489.375,209.938C489.848,209.938 490.057,209.768 490.057,209.428M494.369,213.684C494.369,212.107 492.219,212.523 492.219,211.83C492.219,211.594 492.438,211.444 492.834,211.444C493.182,211.444 493.701,211.519 494.089,211.678L494.191,210.701C493.795,210.536 493.33,210.443 492.857,210.443C491.646,210.443 491.075,211.048 491.075,211.88C491.075,213.483 493.254,213.059 493.254,213.789C493.254,214.061 493.052,214.252 492.571,214.252C492.167,214.252 491.618,214.143 491.229,213.927L491.104,214.909C491.5,215.127 492.011,215.233 492.579,215.233C493.849,215.233 494.369,214.606 494.369,213.684M498.322,210.645C498.025,210.532 497.586,210.444 497.189,210.444C495.686,210.444 495.043,211.319 495.043,212.84C495.043,214.445 495.779,215.234 497.167,215.234C497.67,215.234 498.091,215.134 498.367,214.962L498.283,214.032C498.035,214.142 497.74,214.203 497.43,214.203C496.701,214.203 496.29,213.821 496.29,212.841C496.29,211.877 496.576,211.521 497.452,211.521C497.723,211.521 498.011,211.583 498.251,211.667L498.322,210.645ZM503.221,215.141L503.221,212.151C503.221,211.017 502.641,210.351 501.649,210.351C501.253,210.351 500.827,210.459 500.477,210.755L500.454,210.741L500.472,210.118L500.472,209.048L499.27,209.111L499.27,215.14L500.472,215.14L500.472,211.775C500.618,211.574 500.921,211.419 501.269,211.419C501.782,211.419 502.021,211.668 502.021,212.15L502.021,215.14L503.221,215.14L503.221,215.141ZM506.424,215.227C507.022,215.227 507.563,215.104 507.959,214.926L507.828,213.955C507.424,214.112 507.014,214.187 506.57,214.187C505.763,214.187 505.384,213.892 505.321,213.109L508.059,213.109C508.083,212.946 508.089,212.719 508.089,212.545C508.089,211.056 507.355,210.358 506.151,210.358C504.739,210.358 504.083,211.232 504.083,212.729C504.084,214.373 504.803,215.227 506.424,215.227M505.3,212.313C505.354,211.629 505.58,211.357 506.16,211.357C506.664,211.357 506.975,211.622 506.992,212.313L505.3,212.313ZM512.082,213.684C512.082,212.107 509.935,212.523 509.935,211.83C509.935,211.594 510.152,211.444 510.547,211.444C510.897,211.444 511.416,211.519 511.804,211.678L511.904,210.701C511.51,210.536 511.045,210.443 510.572,210.443C509.362,210.443 508.788,211.048 508.788,211.88C508.788,213.483 510.968,213.059 510.968,213.789C510.968,214.061 510.766,214.252 510.284,214.252C509.882,214.252 509.331,214.143 508.944,213.927L508.821,214.909C509.216,215.127 509.727,215.233 510.293,215.233C511.564,215.233 512.082,214.606 512.082,213.684" style="fill-rule:nonzero;"/>
    </g>
    <g transform="matrix(1,0,0,1,-240.412,-192.601)">
        <path d="M339.094,197.676C339.094,197.676 344.465,203.204 360.104,202.599C360.104,202.599 346.389,204.184 347.03,208.3C347.553,211.661 351.76,210.897 353.258,210.198C355.215,209.283 356.809,208.815 357.891,210.034C358.934,211.207 356.326,213.164 358.673,213.942C360.499,214.544 361.292,212.272 361.292,212.272C361.292,212.272 362.452,215.092 365.457,216.293C366.76,216.815 369.239,217.076 369.239,217.076C369.239,217.076 368.657,224.185 363.266,227.106C359.364,229.22 354.811,229.707 353.349,234.75C352.704,236.967 354.774,237.501 354.774,237.501C354.774,237.501 352.29,237.644 351.438,235.471C349.545,230.641 354.762,227.252 353.44,223.105C352.94,221.538 348.565,220.035 348.656,216.831C348.746,213.626 351.363,212.545 350.01,212.047C348.656,211.55 344.836,211.496 341.207,207.653C337.972,204.225 339.094,197.676 339.094,197.676Z" style="fill:rgb(205,16,19);fill-rule:nonzero;"/>
    </g>
    <g transform="matrix(1,0,0,1,-240.412,-192.601)">
        <path d="M304.508,232.73L303.987,232.73L303.987,236.528L306.261,236.528L306.277,236.043L304.508,236.043L304.508,232.73ZM308.926,236.528L308.926,234.578C308.926,234.176 308.843,233.887 308.676,233.713C308.509,233.536 308.228,233.447 307.832,233.447C307.471,233.447 307.148,233.514 306.859,233.647L306.906,234.046C307.162,233.925 307.443,233.863 307.75,233.863C308,233.863 308.18,233.912 308.291,234.009C308.401,234.108 308.457,234.275 308.457,234.508L308.457,234.805C308.237,234.728 308.005,234.686 307.763,234.686C307.408,234.686 307.139,234.767 306.955,234.929C306.77,235.089 306.679,235.315 306.679,235.605C306.679,235.933 306.762,236.176 306.928,236.334C307.093,236.492 307.32,236.573 307.606,236.573C307.799,236.573 307.975,236.536 308.131,236.461C308.288,236.389 308.412,236.284 308.502,236.151L308.518,236.156L308.563,236.526L308.926,236.526L308.926,236.528ZM308.231,236.022C308.087,236.126 307.921,236.179 307.735,236.179C307.329,236.179 307.128,235.986 307.128,235.602C307.128,235.226 307.367,235.04 307.847,235.04C308.123,235.04 308.324,235.076 308.45,235.152L308.45,235.675C308.45,235.802 308.376,235.918 308.231,236.022ZM311.114,233.509L310.369,233.509L310.369,232.72L309.994,232.76L309.902,233.509L309.467,233.509L309.467,233.885L309.887,233.885L309.887,235.755C309.887,236.024 309.953,236.23 310.087,236.369C310.22,236.509 310.415,236.581 310.672,236.581C310.85,236.581 310.991,236.555 311.092,236.502L311.062,236.141C310.997,236.165 310.914,236.18 310.809,236.18C310.515,236.18 310.368,236.034 310.368,235.742L310.368,233.886L311.113,233.886L311.113,233.509L311.114,233.509ZM312.315,233.501L311.834,233.524L311.834,236.528L312.315,236.528L312.315,233.501ZM311.769,232.744C311.769,232.838 311.793,232.905 311.843,232.944C311.892,232.983 311.97,233.003 312.078,233.003C312.284,233.003 312.387,232.918 312.387,232.744C312.387,232.572 312.284,232.487 312.078,232.487C311.872,232.487 311.769,232.572 311.769,232.744ZM315.634,234.532C315.634,234.178 315.542,233.91 315.363,233.728C315.182,233.545 314.93,233.452 314.606,233.452C314.242,233.452 313.95,233.574 313.73,233.813L313.715,233.813L313.633,233.493L313.289,233.517L313.289,236.528L313.77,236.528L313.77,234.239C313.837,234.134 313.938,234.051 314.071,233.99C314.204,233.928 314.339,233.901 314.474,233.901C314.931,233.901 315.159,234.111 315.159,234.532L315.159,236.528L315.635,236.528L315.635,234.532L315.634,234.532ZM317.573,233.459C317.117,233.459 316.783,233.581 316.573,233.828C316.362,234.073 316.256,234.474 316.256,235.029C316.256,235.582 316.36,235.981 316.57,236.228C316.778,236.472 317.114,236.595 317.572,236.595C318.028,236.595 318.359,236.472 318.563,236.229C318.767,235.986 318.87,235.585 318.87,235.029C318.87,234.47 318.767,234.07 318.563,233.826C318.36,233.579 318.029,233.459 317.573,233.459ZM317.573,233.869C317.868,233.869 318.075,233.955 318.197,234.127C318.319,234.3 318.38,234.599 318.38,235.029C318.38,235.459 318.319,235.759 318.197,235.932C318.076,236.103 317.868,236.188 317.573,236.188C317.274,236.188 317.061,236.103 316.938,235.932C316.814,235.759 316.752,235.458 316.752,235.029C316.752,234.598 316.814,234.3 316.938,234.127C317.061,233.955 317.274,233.869 317.573,233.869ZM323.173,234.923C323.08,234.777 322.965,234.672 322.826,234.599C322.688,234.528 322.536,234.459 322.373,234.395C322.209,234.333 322.057,234.279 321.919,234.23C321.78,234.186 321.665,234.119 321.572,234.031C321.479,233.941 321.433,233.83 321.433,233.702C321.433,233.537 321.495,233.403 321.621,233.298C321.746,233.192 321.941,233.141 322.208,233.141C322.501,233.141 322.804,233.203 323.115,233.324L323.185,232.875C322.905,232.737 322.571,232.671 322.182,232.671C321.767,232.671 321.455,232.768 321.245,232.965C321.036,233.16 320.931,233.419 320.931,233.736C320.931,233.929 320.977,234.099 321.07,234.241C321.163,234.384 321.278,234.489 321.417,234.557C321.557,234.626 321.707,234.695 321.871,234.758C322.034,234.821 322.186,234.877 322.324,234.928C322.463,234.976 322.578,235.046 322.672,235.142C322.765,235.235 322.811,235.35 322.811,235.48C322.811,235.688 322.744,235.848 322.608,235.96C322.473,236.071 322.275,236.129 322.011,236.129C321.642,236.129 321.3,236.035 320.983,235.839L320.901,236.312C321.233,236.503 321.604,236.601 322.015,236.601C322.431,236.601 322.751,236.499 322.975,236.295C323.2,236.089 323.311,235.809 323.311,235.444C323.312,235.242 323.267,235.069 323.173,234.923ZM325.334,233.509L324.588,233.509L324.588,232.72L324.214,232.76L324.122,233.509L323.686,233.509L323.686,233.885L324.106,233.885L324.106,235.755C324.106,236.024 324.173,236.23 324.307,236.369C324.439,236.509 324.635,236.581 324.891,236.581C325.071,236.581 325.21,236.555 325.312,236.502L325.281,236.141C325.216,236.165 325.131,236.18 325.027,236.18C324.734,236.18 324.586,236.034 324.586,235.742L324.586,233.886L325.332,233.886L325.332,233.509L325.334,233.509ZM327.752,233.509L327.752,235.526C327.752,235.939 327.52,236.145 327.056,236.145C326.591,236.145 326.359,235.939 326.359,235.526L326.359,233.509L325.881,233.509L325.881,235.535C325.881,235.873 325.98,236.132 326.175,236.312C326.37,236.494 326.662,236.583 327.051,236.583C327.442,236.583 327.737,236.494 327.933,236.314C328.128,236.138 328.226,235.876 328.226,235.535L328.226,233.509L327.752,233.509ZM331.349,232.501L330.867,232.532L330.867,233.383L330.877,233.789L330.867,233.795C330.651,233.566 330.367,233.452 330.016,233.452C329.239,233.452 328.849,233.973 328.849,235.014C328.849,235.56 328.942,235.956 329.126,236.211C329.311,236.463 329.604,236.589 330.01,236.589C330.411,236.589 330.709,236.463 330.902,236.211L330.917,236.215L330.978,236.528L331.349,236.528L331.349,232.501ZM330.606,236.078C330.486,236.151 330.331,236.188 330.141,236.188C329.845,236.188 329.638,236.103 329.521,235.932C329.404,235.759 329.347,235.458 329.347,235.035C329.347,234.623 329.407,234.33 329.526,234.159C329.646,233.985 329.854,233.901 330.148,233.901C330.306,233.901 330.449,233.929 330.578,233.991C330.706,234.055 330.802,234.138 330.867,234.243L330.867,235.819C330.812,235.918 330.725,236.004 330.606,236.078ZM332.807,233.501L332.326,233.524L332.326,236.528L332.807,236.528L332.807,233.501ZM332.26,232.744C332.26,232.838 332.285,232.905 332.333,232.944C332.382,232.983 332.461,233.003 332.569,233.003C332.776,233.003 332.879,232.918 332.879,232.744C332.879,232.572 332.776,232.487 332.569,232.487C332.363,232.487 332.26,232.572 332.26,232.744ZM335.942,236.367L335.887,235.961C335.623,236.089 335.349,236.153 335.066,236.153C334.735,236.153 334.495,236.074 334.344,235.913C334.195,235.752 334.112,235.476 334.099,235.085L336.034,235.085C336.04,234.996 336.044,234.919 336.044,234.851C336.044,234.384 335.939,234.034 335.73,233.804C335.521,233.574 335.229,233.459 334.854,233.459C334.441,233.459 334.131,233.586 333.922,233.839C333.713,234.093 333.609,234.457 333.609,234.937C333.609,235.51 333.719,235.928 333.939,236.192C334.161,236.458 334.518,236.589 335.012,236.589C335.358,236.589 335.669,236.517 335.942,236.367ZM334.295,234.09C334.418,233.946 334.606,233.873 334.857,233.873C335.344,233.873 335.593,234.166 335.602,234.757L334.087,234.757C334.105,234.455 334.174,234.233 334.295,234.09ZM338.404,235.162C338.3,235.036 338.172,234.947 338.023,234.89C337.872,234.831 337.721,234.786 337.568,234.74C337.417,234.695 337.289,234.636 337.184,234.563C337.08,234.494 337.028,234.401 337.028,234.28C337.028,234.155 337.081,234.056 337.187,233.983C337.293,233.911 337.437,233.874 337.615,233.874C337.882,233.874 338.144,233.929 338.401,234.037L338.442,233.632C338.192,233.517 337.92,233.46 337.626,233.46C337.285,233.46 337.023,233.534 336.843,233.687C336.663,233.84 336.572,234.048 336.572,234.305C336.572,234.495 336.625,234.65 336.732,234.771C336.838,234.893 336.966,234.984 337.117,235.042C337.266,235.1 337.419,235.15 337.57,235.199C337.723,235.244 337.852,235.307 337.957,235.387C338.064,235.461 338.117,235.564 338.117,235.69C338.117,235.839 338.067,235.961 337.963,236.05C337.86,236.143 337.703,236.186 337.494,236.186C337.153,236.186 336.865,236.099 336.633,235.923L336.572,236.337C336.809,236.506 337.117,236.59 337.499,236.59C337.856,236.59 338.124,236.508 338.299,236.34C338.474,236.174 338.562,235.94 338.562,235.644C338.562,235.446 338.509,235.286 338.404,235.162Z" style="fill-rule:nonzero;"/>
    </g>
    <g transform="matrix(1,0,0,1,-240.412,-192.601)">
        <path d="M272.351,227.029L271.829,227.029L271.829,230.829L274.103,230.829L274.118,230.344L272.351,230.344L272.351,227.029ZM276.767,230.829L276.767,228.88C276.767,228.477 276.684,228.19 276.517,228.014C276.349,227.839 276.067,227.749 275.674,227.749C275.312,227.749 274.987,227.815 274.701,227.947L274.747,228.346C275.003,228.224 275.286,228.165 275.593,228.165C275.843,228.165 276.023,228.213 276.132,228.312C276.242,228.409 276.297,228.573 276.297,228.806L276.297,229.107C276.077,229.029 275.846,228.989 275.603,228.989C275.248,228.989 274.978,229.07 274.795,229.23C274.61,229.39 274.518,229.616 274.518,229.907C274.518,230.234 274.6,230.475 274.767,230.635C274.933,230.794 275.158,230.874 275.446,230.874C275.638,230.874 275.813,230.837 275.97,230.763C276.127,230.689 276.252,230.586 276.342,230.454L276.358,230.457L276.402,230.828L276.767,230.828L276.767,230.829ZM276.073,230.324C275.928,230.428 275.763,230.479 275.576,230.479C275.172,230.479 274.969,230.289 274.969,229.904C274.969,229.528 275.209,229.341 275.688,229.341C275.966,229.341 276.167,229.377 276.292,229.451L276.292,229.974C276.292,230.102 276.219,230.219 276.073,230.324ZM278.956,227.811L278.211,227.811L278.211,227.021L277.836,227.061L277.746,227.811L277.309,227.811L277.309,228.188L277.729,228.188L277.729,230.056C277.729,230.326 277.797,230.531 277.929,230.67C278.063,230.812 278.259,230.878 278.515,230.878C278.693,230.878 278.834,230.854 278.936,230.805L278.906,230.44C278.841,230.467 278.757,230.48 278.652,230.48C278.358,230.48 278.211,230.333 278.211,230.04L278.211,228.188L278.956,228.188L278.956,227.811ZM281.712,230.668L281.656,230.263C281.392,230.392 281.119,230.455 280.835,230.455C280.505,230.455 280.263,230.375 280.114,230.215C279.964,230.054 279.882,229.779 279.869,229.386L281.804,229.386C281.811,229.297 281.815,229.221 281.815,229.153C281.815,228.683 281.71,228.336 281.499,228.106C281.291,227.877 280.999,227.76 280.624,227.76C280.21,227.76 279.901,227.885 279.692,228.138C279.483,228.393 279.378,228.758 279.378,229.24C279.378,229.81 279.488,230.227 279.709,230.493C279.931,230.761 280.288,230.891 280.782,230.891C281.128,230.891 281.438,230.814 281.712,230.668ZM280.065,228.39C280.187,228.247 280.374,228.174 280.627,228.174C281.113,228.174 281.361,228.468 281.372,229.056L279.856,229.056C279.874,228.757 279.944,228.533 280.065,228.39ZM283.084,227.801L282.602,227.823L282.602,230.829L283.084,230.829L283.084,227.801ZM282.538,227.045C282.538,227.141 282.561,227.206 282.611,227.248C282.661,227.284 282.738,227.305 282.846,227.305C283.052,227.305 283.155,227.218 283.155,227.045C283.155,226.873 283.052,226.788 282.846,226.788C282.641,226.788 282.538,226.873 282.538,227.045ZM286.404,228.832C286.404,228.477 286.313,228.212 286.132,228.028C285.95,227.845 285.698,227.754 285.374,227.754C285.01,227.754 284.717,227.876 284.498,228.113L284.483,228.113L284.401,227.796L284.056,227.819L284.056,230.829L284.537,230.829L284.537,228.538C284.605,228.434 284.705,228.35 284.838,228.292C284.971,228.231 285.107,228.199 285.242,228.199C285.697,228.199 285.925,228.411 285.925,228.832L285.925,230.829L286.403,230.829L286.403,228.832L286.404,228.832ZM289.306,230.829L289.306,228.88C289.306,228.477 289.222,228.19 289.055,228.014C288.888,227.839 288.607,227.749 288.211,227.749C287.85,227.749 287.526,227.815 287.239,227.947L287.284,228.346C287.54,228.224 287.823,228.165 288.131,228.165C288.38,228.165 288.561,228.213 288.67,228.312C288.78,228.409 288.836,228.573 288.836,228.806L288.836,229.107C288.616,229.029 288.385,228.989 288.142,228.989C287.788,228.989 287.517,229.07 287.333,229.23C287.15,229.39 287.058,229.616 287.058,229.907C287.058,230.234 287.141,230.475 287.307,230.635C287.472,230.794 287.698,230.874 287.985,230.874C288.178,230.874 288.353,230.837 288.509,230.763C288.667,230.689 288.79,230.586 288.882,230.454L288.897,230.457L288.943,230.828L289.306,230.828L289.306,230.829ZM288.612,230.324C288.467,230.428 288.301,230.479 288.115,230.479C287.709,230.479 287.507,230.289 287.507,229.904C287.507,229.528 287.747,229.341 288.227,229.341C288.503,229.341 288.704,229.377 288.831,229.451L288.831,229.974C288.831,230.102 288.757,230.219 288.612,230.324ZM293.987,228.817C293.987,228.469 293.898,228.207 293.72,228.028C293.543,227.848 293.303,227.759 293.003,227.759C292.603,227.759 292.32,227.914 292.152,228.224L292.142,228.224C292,227.918 291.728,227.764 291.326,227.764C290.999,227.764 290.739,227.881 290.546,228.117L290.53,228.117L290.445,227.796L290.1,227.819L290.1,230.829L290.581,230.829L290.581,228.538C290.642,228.437 290.729,228.355 290.847,228.295C290.964,228.233 291.087,228.199 291.215,228.199C291.394,228.199 291.537,228.247 291.646,228.341C291.754,228.432 291.808,228.577 291.808,228.774L291.808,230.83L292.284,230.83L292.284,228.774C292.284,228.59 292.34,228.451 292.454,228.35C292.567,228.254 292.708,228.204 292.882,228.204C293.3,228.204 293.51,228.412 293.51,228.823L293.51,230.83L293.987,230.83L293.987,228.817ZM296.945,230.668L296.89,230.263C296.626,230.392 296.353,230.455 296.069,230.455C295.738,230.455 295.498,230.375 295.347,230.215C295.197,230.054 295.115,229.779 295.101,229.386L297.036,229.386C297.044,229.297 297.047,229.221 297.047,229.153C297.047,228.683 296.942,228.336 296.732,228.106C296.522,227.876 296.231,227.76 295.855,227.76C295.443,227.76 295.133,227.885 294.924,228.138C294.714,228.393 294.61,228.758 294.61,229.24C294.61,229.81 294.721,230.227 294.941,230.493C295.163,230.761 295.52,230.891 296.012,230.891C296.361,230.891 296.672,230.814 296.945,230.668ZM295.298,228.39C295.42,228.247 295.606,228.174 295.86,228.174C296.346,228.174 296.595,228.468 296.606,229.056L295.09,229.056C295.108,228.757 295.176,228.533 295.298,228.39ZM298.19,229.299C298.19,228.984 298.272,228.727 298.435,228.537C298.597,228.346 298.799,228.252 299.041,228.252C299.16,228.252 299.261,228.266 299.341,228.292L299.371,227.804C299.283,227.779 299.183,227.765 299.072,227.765C298.869,227.765 298.688,227.823 298.528,227.946C298.366,228.066 298.239,228.234 298.145,228.453L298.135,228.453L298.094,227.805L297.71,227.834L297.71,230.83L298.189,230.83L298.189,229.299L298.19,229.299ZM300.572,227.801L300.092,227.823L300.092,230.829L300.572,230.829L300.572,227.801ZM300.025,227.045C300.025,227.141 300.049,227.206 300.098,227.248C300.148,227.284 300.226,227.305 300.332,227.305C300.539,227.305 300.642,227.218 300.642,227.045C300.642,226.873 300.539,226.788 300.332,226.788C300.129,226.788 300.025,226.873 300.025,227.045ZM301.575,226.833L301.575,230.829L302.051,230.829L302.051,229.406L302.517,229.406L303.445,230.829L304.006,230.829L302.934,229.19L303.967,227.81L303.405,227.81L302.515,228.998L302.053,228.998L302.053,226.801L301.575,226.833ZM306.637,230.829L306.637,228.88C306.637,228.477 306.553,228.19 306.385,228.014C306.219,227.839 305.937,227.749 305.542,227.749C305.181,227.749 304.857,227.815 304.569,227.947L304.616,228.346C304.871,228.224 305.154,228.165 305.462,228.165C305.712,228.165 305.892,228.213 306.001,228.312C306.112,228.409 306.167,228.573 306.167,228.806L306.167,229.107C305.948,229.029 305.717,228.989 305.472,228.989C305.119,228.989 304.849,229.07 304.665,229.23C304.48,229.39 304.388,229.616 304.388,229.907C304.388,230.234 304.471,230.475 304.637,230.635C304.802,230.794 305.029,230.874 305.316,230.874C305.508,230.874 305.683,230.837 305.84,230.763C305.997,230.689 306.122,230.586 306.212,230.454L306.228,230.457L306.274,230.828L306.637,230.828L306.637,230.829ZM305.942,230.324C305.798,230.428 305.631,230.479 305.446,230.479C305.04,230.479 304.837,230.289 304.837,229.904C304.837,229.528 305.077,229.341 305.557,229.341C305.833,229.341 306.034,229.377 306.159,229.451L306.159,229.974C306.16,230.102 306.088,230.219 305.942,230.324ZM307.336,230.596C307.336,230.661 307.356,230.722 307.398,230.775C307.438,230.83 307.486,230.866 307.544,230.879L307.411,231.504L307.583,231.551C307.671,231.412 307.755,231.244 307.834,231.046C307.914,230.849 307.954,230.701 307.954,230.608C307.954,230.384 307.849,230.272 307.639,230.272C307.437,230.271 307.336,230.381 307.336,230.596ZM311.839,228.828L313.151,227.029L312.533,227.029L311.368,228.635L310.806,228.635L310.806,227.029L310.289,227.029L310.289,230.829L310.806,230.829L310.806,229.076L311.357,229.076L312.579,230.829L313.228,230.829L311.839,228.828ZM315.886,230.829L315.886,228.88C315.886,228.477 315.802,228.19 315.636,228.014C315.469,227.839 315.188,227.749 314.793,227.749C314.431,227.749 314.107,227.815 313.82,227.947L313.865,228.346C314.122,228.224 314.405,228.165 314.712,228.165C314.962,228.165 315.142,228.213 315.252,228.312C315.361,228.409 315.416,228.573 315.416,228.806L315.416,229.107C315.196,229.029 314.966,228.989 314.722,228.989C314.368,228.989 314.098,229.07 313.915,229.23C313.729,229.39 313.637,229.616 313.637,229.907C313.637,230.234 313.721,230.475 313.886,230.635C314.052,230.794 314.279,230.874 314.565,230.874C314.757,230.874 314.932,230.837 315.09,230.763C315.246,230.689 315.37,230.586 315.462,230.454L315.477,230.457L315.524,230.828L315.886,230.828L315.886,230.829ZM315.192,230.324C315.046,230.428 314.881,230.479 314.696,230.479C314.291,230.479 314.087,230.289 314.087,229.904C314.087,229.528 314.328,229.341 314.807,229.341C315.084,229.341 315.286,229.377 315.411,229.451L315.411,229.974C315.411,230.102 315.337,230.219 315.192,230.324ZM317.163,229.299C317.163,228.984 317.244,228.727 317.407,228.537C317.57,228.346 317.771,228.252 318.016,228.252C318.133,228.252 318.233,228.266 318.314,228.292L318.344,227.804C318.257,227.779 318.156,227.765 318.046,227.765C317.842,227.765 317.662,227.823 317.502,227.946C317.341,228.066 317.213,228.234 317.119,228.453L317.109,228.453L317.068,227.805L316.684,227.834L316.684,230.83L317.164,230.83L317.164,229.299L317.163,229.299ZM319.544,227.801L319.063,227.823L319.063,230.829L319.544,230.829L319.544,227.801ZM318.998,227.045C318.998,227.141 319.021,227.206 319.071,227.248C319.12,227.284 319.198,227.305 319.306,227.305C319.513,227.305 319.616,227.218 319.616,227.045C319.616,226.873 319.512,226.788 319.306,226.788C319.101,226.788 318.998,226.873 318.998,227.045ZM321.889,227.754C321.532,227.754 321.246,227.867 321.029,228.094L321.019,228.09L321.023,227.685L321.023,226.797L320.547,226.828L320.547,230.829L320.867,230.829L320.943,230.516L320.958,230.512C321.162,230.763 321.453,230.886 321.835,230.886C322.23,230.886 322.529,230.763 322.734,230.512C322.938,230.261 323.04,229.862 323.04,229.311C323.04,228.758 322.942,228.364 322.744,228.118C322.545,227.876 322.261,227.754 321.889,227.754ZM322.354,230.23C322.222,230.4 322.025,230.484 321.769,230.484C321.593,230.484 321.441,230.451 321.315,230.38C321.189,230.311 321.091,230.223 321.023,230.115L321.023,228.551C321.189,228.312 321.436,228.19 321.763,228.19C322.033,228.19 322.233,228.271 322.361,228.428C322.49,228.59 322.554,228.886 322.554,229.321C322.554,229.76 322.486,230.062 322.354,230.23ZM324.317,227.801L323.835,227.823L323.835,230.829L324.317,230.829L324.317,227.801ZM323.769,227.045C323.769,227.141 323.794,227.206 323.844,227.248C323.892,227.284 323.97,227.305 324.08,227.305C324.285,227.305 324.388,227.218 324.388,227.045C324.388,226.873 324.285,226.788 324.08,226.788C323.873,226.788 323.769,226.873 323.769,227.045ZM325.319,226.833L325.319,230.829L325.796,230.829L325.796,229.406L326.261,229.406L327.188,230.829L327.752,230.829L326.677,229.19L327.711,227.81L327.149,227.81L326.258,228.998L325.797,228.998L325.797,226.801L325.319,226.833ZM331.617,227.811L331.617,229.827C331.617,230.239 331.386,230.447 330.922,230.447C330.456,230.447 330.223,230.239 330.223,229.827L330.223,227.811L329.747,227.811L329.747,229.836C329.747,230.175 329.846,230.436 330.042,230.615C330.237,230.795 330.529,230.886 330.917,230.886C331.31,230.886 331.603,230.795 331.8,230.617C331.995,230.437 332.092,230.179 332.092,229.836L332.092,227.811L331.617,227.811ZM335.233,228.832C335.233,228.477 335.142,228.212 334.962,228.028C334.782,227.845 334.53,227.754 334.205,227.754C333.841,227.754 333.549,227.876 333.329,228.113L333.311,228.113L333.231,227.796L332.888,227.819L332.888,230.829L333.369,230.829L333.369,228.538C333.435,228.434 333.536,228.35 333.67,228.292C333.804,228.231 333.937,228.199 334.073,228.199C334.53,228.199 334.758,228.411 334.758,228.832L334.758,230.829L335.233,230.829L335.233,228.832ZM338.354,226.802L337.873,226.833L337.873,227.685L337.882,228.09L337.873,228.094C337.657,227.867 337.374,227.754 337.022,227.754C336.246,227.754 335.857,228.275 335.857,229.315C335.857,229.858 335.949,230.259 336.134,230.512C336.318,230.764 336.613,230.891 337.018,230.891C337.419,230.891 337.717,230.764 337.91,230.512L337.925,230.516L337.986,230.829L338.356,230.829L338.356,226.802L338.354,226.802ZM337.611,230.377C337.492,230.453 337.338,230.491 337.148,230.491C336.852,230.491 336.644,230.404 336.528,230.23C336.411,230.057 336.353,229.759 336.353,229.333C336.353,228.924 336.414,228.633 336.533,228.46C336.653,228.285 336.861,228.199 337.155,228.199C337.314,228.199 337.457,228.232 337.586,228.295C337.714,228.356 337.81,228.441 337.874,228.546L337.874,230.12C337.819,230.219 337.731,230.303 337.611,230.377Z" style="fill-rule:nonzero;"/>
    </g>
    <g transform="matrix(1,0,0,1,-240.412,-192.601)">
        <path d="M282.654,221.12L280.319,221.12L280.319,224.919L280.841,224.919L280.841,223.238L282.364,223.238L282.37,222.778L280.84,222.778L280.84,221.611L282.664,221.611L282.654,221.12ZM285.364,224.919L285.364,222.968C285.364,222.567 285.281,222.279 285.114,222.103C284.947,221.926 284.666,221.84 284.272,221.84C283.91,221.84 283.585,221.904 283.299,222.037L283.344,222.437C283.601,222.315 283.882,222.252 284.191,222.252C284.441,222.252 284.621,222.304 284.73,222.398C284.839,222.497 284.894,222.665 284.894,222.896L284.894,223.194C284.675,223.118 284.443,223.081 284.201,223.081C283.847,223.081 283.576,223.158 283.393,223.32C283.208,223.482 283.116,223.706 283.116,223.997C283.116,224.324 283.199,224.566 283.365,224.726C283.531,224.886 283.757,224.965 284.043,224.965C284.235,224.965 284.41,224.928 284.568,224.852C284.725,224.779 284.849,224.674 284.941,224.543L284.956,224.55L285.001,224.918L285.364,224.918L285.364,224.919ZM284.671,224.413C284.525,224.517 284.359,224.569 284.173,224.569C283.769,224.569 283.566,224.376 283.566,223.991C283.566,223.617 283.805,223.429 284.286,223.429C284.562,223.429 284.764,223.467 284.889,223.539L284.889,224.06C284.888,224.193 284.816,224.308 284.671,224.413ZM287.284,221.854C286.838,221.854 286.511,221.98 286.302,222.235C286.093,222.487 285.988,222.873 285.988,223.388C285.988,223.937 286.094,224.339 286.306,224.598C286.519,224.855 286.839,224.985 287.269,224.985C287.587,224.985 287.845,224.914 288.05,224.777L288.015,224.383C287.825,224.495 287.611,224.555 287.371,224.555C287.074,224.555 286.851,224.464 286.704,224.282C286.558,224.101 286.484,223.804 286.484,223.388C286.484,222.995 286.553,222.716 286.691,222.547C286.827,222.379 287.058,222.296 287.382,222.296C287.591,222.296 287.796,222.339 287.995,222.43L288.024,222.001C287.798,221.903 287.551,221.854 287.284,221.854ZM291.059,222.918C291.059,222.572 290.97,222.311 290.795,222.123C290.619,221.936 290.367,221.845 290.04,221.845C289.688,221.845 289.406,221.956 289.193,222.178L289.184,222.173L289.189,221.771L289.189,220.894L288.712,220.922L288.712,224.919L289.189,224.919L289.189,222.634C289.252,222.539 289.349,222.457 289.479,222.388C289.606,222.324 289.747,222.29 289.898,222.29C290.353,222.29 290.582,222.498 290.582,222.918L290.582,224.919L291.059,224.919L291.059,222.918ZM292.461,221.89L291.98,221.915L291.98,224.919L292.461,224.919L292.461,221.89ZM291.914,221.137C291.914,221.23 291.938,221.297 291.987,221.334C292.037,221.374 292.115,221.393 292.223,221.393C292.429,221.393 292.532,221.309 292.532,221.137C292.532,220.962 292.429,220.876 292.223,220.876C292.017,220.876 291.914,220.962 291.914,221.137ZM295.78,222.923C295.78,222.568 295.69,222.3 295.509,222.118C295.329,221.936 295.077,221.845 294.752,221.845C294.388,221.845 294.095,221.964 293.876,222.204L293.861,222.204L293.78,221.885L293.436,221.912L293.436,224.919L293.917,224.919L293.917,222.631C293.984,222.526 294.084,222.443 294.218,222.382C294.351,222.32 294.486,222.29 294.62,222.29C295.077,222.29 295.303,222.501 295.303,222.923L295.303,224.919L295.781,224.919L295.781,222.923L295.78,222.923ZM297.248,222.271L298.024,222.271L298.024,221.901L297.248,221.901L297.248,221.771C297.248,221.415 297.446,221.236 297.842,221.236C297.96,221.236 298.07,221.249 298.172,221.277L298.201,220.95C298.073,220.909 297.925,220.888 297.755,220.888C297.424,220.888 297.176,220.967 297.014,221.125C296.85,221.284 296.767,221.497 296.767,221.764L296.767,221.902L296.322,221.902L296.322,222.272L296.767,222.272L296.767,224.92L297.248,224.92L297.248,222.271ZM299.767,221.85C299.31,221.85 298.977,221.975 298.766,222.217C298.555,222.466 298.45,222.866 298.45,223.422C298.45,223.973 298.554,224.372 298.764,224.617C298.972,224.864 299.306,224.985 299.767,224.985C300.222,224.985 300.553,224.864 300.758,224.621C300.961,224.376 301.064,223.975 301.064,223.422C301.064,222.862 300.961,222.461 300.758,222.216C300.553,221.969 300.222,221.85 299.767,221.85ZM299.767,222.259C300.06,222.259 300.268,222.346 300.39,222.519C300.511,222.69 300.572,222.992 300.572,223.422C300.572,223.848 300.51,224.151 300.39,224.323C300.268,224.494 300.06,224.58 299.767,224.58C299.466,224.58 299.253,224.494 299.13,224.323C299.007,224.15 298.945,223.847 298.945,223.422C298.945,222.991 299.007,222.69 299.13,222.519C299.253,222.346 299.466,222.259 299.767,222.259ZM302.219,223.389C302.219,223.073 302.3,222.819 302.462,222.628C302.625,222.436 302.827,222.34 303.069,222.34C303.188,222.34 303.288,222.355 303.369,222.382L303.398,221.896C303.311,221.87 303.212,221.855 303.1,221.855C302.897,221.855 302.716,221.916 302.556,222.033C302.394,222.155 302.267,222.325 302.172,222.546L302.163,222.546L302.123,221.897L301.738,221.921L301.738,224.92L302.219,224.92L302.219,223.389ZM307.878,222.907C307.878,222.56 307.788,222.298 307.611,222.118C307.434,221.94 307.194,221.849 306.895,221.849C306.496,221.849 306.213,222.004 306.043,222.315L306.032,222.315C305.892,222.007 305.619,221.854 305.217,221.854C304.89,221.854 304.63,221.974 304.437,222.208L304.422,222.208L304.335,221.884L303.991,221.911L303.991,224.918L304.472,224.918L304.472,222.63C304.533,222.528 304.621,222.446 304.739,222.383C304.855,222.321 304.977,222.289 305.105,222.289C305.285,222.289 305.429,222.335 305.537,222.428C305.643,222.522 305.699,222.666 305.699,222.862L305.699,224.919L306.175,224.919L306.175,222.862C306.175,222.679 306.231,222.54 306.344,222.442C306.458,222.342 306.599,222.296 306.772,222.296C307.191,222.296 307.399,222.5 307.399,222.914L307.399,224.918L307.877,224.918L307.877,222.907L307.878,222.907ZM310.78,224.919L310.78,222.968C310.78,222.567 310.697,222.279 310.53,222.103C310.363,221.926 310.081,221.84 309.687,221.84C309.325,221.84 309,221.904 308.714,222.037L308.758,222.437C309.014,222.315 309.297,222.252 309.605,222.252C309.855,222.252 310.034,222.304 310.145,222.398C310.254,222.497 310.309,222.665 310.309,222.896L310.309,223.194C310.09,223.118 309.859,223.081 309.616,223.081C309.261,223.081 308.991,223.158 308.807,223.32C308.623,223.482 308.531,223.706 308.531,223.997C308.531,224.324 308.613,224.566 308.78,224.726C308.946,224.886 309.171,224.965 309.459,224.965C309.651,224.965 309.826,224.928 309.982,224.852C310.141,224.779 310.264,224.674 310.355,224.543L310.37,224.55L310.415,224.918L310.78,224.918L310.78,224.919ZM310.086,224.413C309.941,224.517 309.776,224.569 309.588,224.569C309.184,224.569 308.982,224.376 308.982,223.991C308.982,223.617 309.222,223.429 309.701,223.429C309.979,223.429 310.179,223.467 310.304,223.539L310.304,224.06C310.304,224.193 310.231,224.308 310.086,224.413ZM312.968,221.9L312.224,221.9L312.224,221.11L311.849,221.15L311.759,221.9L311.321,221.9L311.321,222.274L311.742,222.274L311.742,224.143C311.742,224.414 311.81,224.619 311.943,224.76C312.075,224.899 312.271,224.97 312.527,224.97C312.706,224.97 312.846,224.945 312.947,224.894L312.918,224.528C312.853,224.556 312.769,224.569 312.664,224.569C312.37,224.569 312.223,224.423 312.223,224.129L312.223,222.275L312.967,222.275L312.967,221.9L312.968,221.9ZM314.169,221.89L313.688,221.915L313.688,224.919L314.169,224.919L314.169,221.89ZM313.623,221.137C313.623,221.23 313.647,221.297 313.696,221.334C313.745,221.374 313.823,221.393 313.931,221.393C314.137,221.393 314.24,221.309 314.24,221.137C314.24,220.962 314.136,220.876 313.931,220.876C313.726,220.876 313.623,220.962 313.623,221.137ZM316.287,221.85C315.832,221.85 315.497,221.975 315.287,222.217C315.076,222.466 314.971,222.866 314.971,223.422C314.971,223.973 315.075,224.372 315.284,224.617C315.493,224.864 315.828,224.985 316.287,224.985C316.743,224.985 317.074,224.864 317.278,224.621C317.482,224.376 317.586,223.975 317.586,223.422C317.586,222.862 317.482,222.461 317.278,222.216C317.073,221.969 316.742,221.85 316.287,221.85ZM316.287,222.259C316.581,222.259 316.787,222.346 316.911,222.519C317.032,222.69 317.093,222.992 317.093,223.422C317.093,223.848 317.032,224.151 316.911,224.323C316.787,224.494 316.581,224.58 316.287,224.58C315.986,224.58 315.775,224.494 315.651,224.323C315.527,224.15 315.466,223.847 315.466,223.422C315.466,222.991 315.527,222.69 315.651,222.519C315.775,222.346 315.986,222.259 316.287,222.259ZM320.603,222.923C320.603,222.568 320.513,222.3 320.331,222.118C320.151,221.936 319.899,221.845 319.575,221.845C319.21,221.845 318.918,221.964 318.697,222.204L318.683,222.204L318.601,221.885L318.257,221.912L318.257,224.919L318.738,224.919L318.738,222.631C318.804,222.526 318.905,222.443 319.039,222.382C319.173,222.32 319.307,222.29 319.441,222.29C319.898,222.29 320.126,222.501 320.126,222.923L320.126,224.919L320.602,224.919L320.602,222.923L320.603,222.923ZM323.096,223.551C322.991,223.428 322.862,223.336 322.713,223.28C322.562,223.223 322.411,223.175 322.259,223.129C322.107,223.084 321.979,223.025 321.874,222.952C321.77,222.882 321.718,222.79 321.718,222.671C321.718,222.546 321.771,222.447 321.877,222.376C321.983,222.301 322.126,222.264 322.306,222.264C322.572,222.264 322.835,222.32 323.091,222.425L323.132,222.021C322.882,221.907 322.61,221.85 322.317,221.85C321.974,221.85 321.713,221.925 321.533,222.079C321.352,222.231 321.262,222.436 321.262,222.697C321.262,222.885 321.315,223.041 321.421,223.161C321.528,223.283 321.657,223.372 321.807,223.431C321.957,223.489 322.107,223.54 322.26,223.59C322.412,223.636 322.542,223.697 322.648,223.776C322.755,223.854 322.808,223.954 322.808,224.079C322.808,224.229 322.755,224.353 322.652,224.44C322.549,224.532 322.393,224.577 322.184,224.577C321.844,224.577 321.556,224.49 321.323,224.311L321.262,224.728C321.499,224.896 321.808,224.981 322.19,224.981C322.547,224.981 322.814,224.897 322.989,224.73C323.165,224.563 323.254,224.333 323.254,224.034C323.253,223.839 323.2,223.676 323.096,223.551ZM326.221,220.894L325.74,220.922L325.74,221.774L325.75,222.178L325.74,222.184C325.525,221.958 325.241,221.845 324.889,221.845C324.113,221.845 323.725,222.364 323.725,223.405C323.725,223.95 323.815,224.346 324,224.6C324.184,224.853 324.479,224.98 324.883,224.98C325.286,224.98 325.583,224.853 325.776,224.6L325.791,224.604L325.852,224.919L326.222,224.919L326.222,220.894L326.221,220.894ZM325.479,224.469C325.359,224.542 325.205,224.58 325.016,224.58C324.719,224.58 324.512,224.494 324.395,224.323C324.278,224.15 324.22,223.849 324.22,223.425C324.22,223.012 324.28,222.719 324.4,222.548C324.521,222.378 324.728,222.29 325.021,222.29C325.179,222.29 325.324,222.321 325.451,222.384C325.579,222.447 325.676,222.53 325.74,222.634L325.74,224.207C325.685,224.308 325.599,224.394 325.479,224.469ZM327.68,221.89L327.199,221.915L327.199,224.919L327.68,224.919L327.68,221.89ZM327.132,221.137C327.132,221.23 327.157,221.297 327.207,221.334C327.255,221.374 327.333,221.393 327.44,221.393C327.648,221.393 327.751,221.309 327.751,221.137C327.751,220.962 327.647,220.876 327.44,220.876C327.236,220.876 327.132,220.962 327.132,221.137ZM330.815,224.757L330.759,224.352C330.496,224.479 330.222,224.544 329.94,224.544C329.607,224.544 329.367,224.465 329.217,224.304C329.066,224.143 328.985,223.867 328.97,223.476L330.906,223.476C330.913,223.388 330.916,223.31 330.916,223.245C330.916,222.774 330.811,222.425 330.602,222.193C330.393,221.964 330.1,221.85 329.727,221.85C329.314,221.85 329.002,221.977 328.794,222.231C328.585,222.485 328.48,222.85 328.48,223.328C328.48,223.902 328.591,224.318 328.813,224.583C329.034,224.85 329.392,224.98 329.886,224.98C330.232,224.979 330.543,224.905 330.815,224.757ZM329.169,222.481C329.291,222.335 329.478,222.263 329.732,222.263C330.217,222.263 330.465,222.558 330.475,223.147L328.961,223.147C328.979,222.845 329.047,222.626 329.169,222.481ZM333.926,222.923C333.926,222.568 333.836,222.3 333.655,222.118C333.475,221.936 333.222,221.845 332.899,221.845C332.533,221.845 332.241,221.964 332.022,222.204L332.008,222.204L331.926,221.885L331.582,221.912L331.582,224.919L332.063,224.919L332.063,222.631C332.131,222.526 332.23,222.443 332.365,222.382C332.497,222.32 332.632,222.29 332.766,222.29C333.223,222.29 333.452,222.501 333.452,222.923L333.452,224.919L333.927,224.919L333.927,222.923L333.926,222.923ZM336.418,223.551C336.313,223.428 336.187,223.336 336.035,223.28C335.884,223.223 335.735,223.175 335.583,223.129C335.43,223.084 335.303,223.025 335.198,222.952C335.094,222.882 335.041,222.79 335.041,222.671C335.041,222.546 335.095,222.447 335.201,222.376C335.307,222.301 335.45,222.264 335.629,222.264C335.895,222.264 336.157,222.32 336.414,222.425L336.455,222.021C336.205,221.907 335.933,221.85 335.64,221.85C335.298,221.85 335.037,221.925 334.857,222.079C334.676,222.231 334.585,222.436 334.585,222.697C334.585,222.885 334.638,223.041 334.746,223.161C334.852,223.283 334.981,223.372 335.131,223.431C335.282,223.489 335.432,223.54 335.585,223.59C335.737,223.636 335.866,223.697 335.971,223.776C336.078,223.854 336.132,223.954 336.132,224.079C336.132,224.229 336.08,224.353 335.978,224.44C335.874,224.532 335.718,224.577 335.509,224.577C335.168,224.577 334.881,224.49 334.648,224.311L334.586,224.728C334.823,224.896 335.132,224.981 335.514,224.981C335.872,224.981 336.139,224.897 336.314,224.73C336.489,224.563 336.577,224.333 336.577,224.034C336.575,223.839 336.523,223.676 336.418,223.551ZM338.613,221.9L337.868,221.9L337.868,221.11L337.493,221.15L337.402,221.9L336.967,221.9L336.967,222.274L337.387,222.274L337.387,224.143C337.387,224.414 337.454,224.619 337.587,224.76C337.72,224.899 337.914,224.97 338.172,224.97C338.351,224.97 338.49,224.945 338.592,224.894L338.561,224.528C338.497,224.556 338.413,224.569 338.308,224.569C338.015,224.569 337.869,224.423 337.869,224.129L337.869,222.275L338.614,222.275L338.614,221.9L338.613,221.9Z" style="fill-rule:nonzero;"/>
    </g>
    <g transform="matrix(1,0,0,1,-240.412,-192.601)">
        <path d="M326.025,209.224L320.13,209.224L320.13,218.173L322.135,218.173L322.135,214.688L325.379,214.688L325.403,212.969L322.134,212.969L322.134,211.04L326.058,211.04L326.025,209.224ZM329.724,218.173L329.724,209.224L327.672,209.224L327.672,218.173L329.724,218.173ZM337.973,210.282C337.341,209.577 336.317,209.223 334.901,209.223L331.549,209.223L331.549,218.172L334.926,218.172C336.278,218.172 337.282,217.818 337.939,217.105C338.594,216.393 338.923,215.246 338.923,213.663C338.922,212.111 338.605,210.985 337.973,210.282ZM336.607,215.379C336.473,215.778 336.273,216.044 336.011,216.182C335.748,216.316 335.375,216.383 334.888,216.383L333.565,216.383L333.565,211.028L334.877,211.028C335.608,211.028 336.114,211.208 336.393,211.564C336.671,211.921 336.81,212.617 336.81,213.652C336.811,214.407 336.742,214.984 336.607,215.379Z" style="fill-rule:nonzero;"/>
    </g>
</svg>
