<?xml version="1.0" encoding="UTF-8"?>
<!-- Generator: Adobe Illustrator 26.2.1, SVG Export Plug-In . SVG Version: 6.00 Build 0)  -->
<svg xmlns="http://www.w3.org/2000/svg" xmlns:xlink="http://www.w3.org/1999/xlink" version="1.1" id="Ebene_1" x="0px" y="0px" viewBox="0 0 262.6 112" style="enable-background:new 0 0 262.6 112;" xml:space="preserve">
<style type="text/css">
	.st0{fill:#424837;}
	.st1{fill:#BF1818;}
	.st2{fill:#3A402F;}
</style>
<g>
	<path class="st0" d="M19.8,2v8.9h-9.7v10.3h8.8v9.2h-8.8v19.9H0.6V2H19.8z"></path>
	<path class="st0" d="M36,2v48.3h-9.6V2H36z"></path>
	<path class="st0" d="M52.2,2c6.9,0,10.6,1.3,14.3,4.9c4.3,4.1,6.6,10.9,6.6,19.5c0,15.6-6.9,23.9-19.5,23.9h-9.3V2H52.2z    M53.8,41.4c2.8,0,4.3-0.6,5.9-2.3c2.4-2.5,3.8-7.4,3.8-12.8S62,15.9,59.7,13.2c-1.7-2-3.1-2.6-5.9-2.8V41.4z"></path>
</g>
<g>
	<path class="st1" d="M111.1,37.8v2.9h-6.8v9.2h-3.1v-9.2h-26L104.3,0v37.8H111.1z M101.2,9.4L80.9,37.8h20.3V9.4z"></path>
</g>
<g>
	<path class="st2" d="M136.8,12.5c-2.8-2.2-4.6-3-6.9-3c-2.9,0-4.8,1.9-4.8,4.7c0,2.6,1.2,4.3,5.1,7.3c4.7,3.5,6,4.7,7.2,6.5   c1.4,2.2,2.2,4.9,2.2,7.8c0,8.9-5.5,14.9-13.8,14.9c-3.2,0-5.9-0.8-8.3-2.5v-9.1c2.8,1.9,4.7,2.6,7.1,2.6c3.4,0,5.6-2.1,5.6-5.4   c0-2.7-0.7-3.5-5.6-6.9c-6.6-4.5-8.9-8.2-8.9-14.3c0-8.5,5.1-14.3,12.6-14.3c3.1,0,5.4,0.7,8.5,2.4V12.5z"></path>
	<path class="st2" d="M164.6,1.6l11.5,48.3H166l-1.7-8.1h-9.7l-1.7,8.1h-9.6l11.2-48.3C154.6,1.6,164.6,1.6,164.6,1.6z M161.2,26.8   c-1-5.1-1.4-8-2-12.7c-0.3,4.1-1,9.8-1.8,13.6l-1.4,6.7h6.7L161.2,26.8z"></path>
</g>
<g>
	<path class="st2" d="M6.7,66.5v1.9H2.8v5.4h3.4v1.9H2.8v7.7H0.6v-17H6.7z"></path>
	<path class="st2" d="M15.6,66.5l3.6,17H17l-0.6-3.3H13l-0.7,3.3h-2.2l3.7-17H15.6z M15.5,75.7c-0.3-1.7-0.7-4.5-0.8-5.9   c-0.2,2.1-0.5,4.2-1,6.4l-0.4,2.2H16L15.5,75.7z"></path>
	<path class="st2" d="M30.4,68.8c-0.7-0.3-1-0.4-1.5-0.4c-1.1,0-2,0.7-2.5,1.8c-0.4,1-0.6,2.7-0.6,5c0,4.2,1.1,6.3,3.2,6.3   c0.5,0,0.8-0.1,1.3-0.4v2.1c-0.7,0.4-1,0.5-1.9,0.5c-3.4,0-5.1-2.8-5.1-8.4c0-6.1,1.7-9,5.1-9c0.8,0,1.2,0.1,1.9,0.5V68.8z"></path>
	<path class="st2" d="M37.9,66.5v6.6h3.3v-6.6h2.3v17h-2.3v-8.4h-3.3v8.4h-2.3v-17H37.9z"></path>
	<path class="st2" d="M51.8,66.5v17h-2.3v-17H51.8z"></path>
	<path class="st2" d="M59.8,66.5l2.3,6.8c0.6,1.7,1.4,4.6,1.7,6.1c-0.4-2.6-0.5-4-0.5-6.6v-6.3h2.3v17h-2.1l-2.6-7.6   c-0.2-0.7-0.7-2.4-0.9-2.9c0-0.2-0.2-0.8-0.4-1.7c0-0.1-0.1-0.5-0.2-0.9c0.1,0.4,0.1,0.7,0.1,0.8c0,0.6,0.1,1.1,0.1,1.7   c0.1,0.7,0.1,1.4,0.1,2.1l0,1l0.1,7.4h-2.3v-17H59.8z"></path>
	<path class="st2" d="M77.5,66.5v1.9h-3.8v5.4h3.4v1.9h-3.4v7.7h-2.3v-17H77.5z"></path>
	<path class="st2" d="M90.1,68.1c0.8,1.5,1.1,3.5,1.1,7.3c0,6-1.2,8.3-4.3,8.3c-1.6,0-2.8-0.7-3.4-1.9c-0.7-1.4-1-3.6-1-7.2   c0-3.1,0.3-4.9,0.9-6.2c0.7-1.4,1.8-2.1,3.5-2.1C88.2,66.3,89.4,66.9,90.1,68.1z M85.1,69.6c-0.3,0.8-0.4,2.3-0.4,5.4   c0,5.1,0.5,6.5,2,6.5c0.9,0,1.5-0.6,1.7-1.8c0.2-0.9,0.3-2.5,0.3-4.1c0-5.9-0.4-7.3-2-7.3C86,68.3,85.5,68.7,85.1,69.6z"></path>
	<path class="st2" d="M99.7,66.5c1.2,0,1.9,0.2,2.5,0.6c0.9,0.7,1.5,2.1,1.5,3.8c0,1.4-0.4,2.6-1,3.5c-0.4,0.5-0.7,0.7-1.3,0.8   l3.1,8.2h-2.3L99,75.2v8.3h-2.3v-17H99.7z M99,74c0.9,0,1.3-0.1,1.7-0.4c0.5-0.4,0.8-1.2,0.8-2.3c0-1.1-0.2-2-0.6-2.5   c-0.3-0.3-0.7-0.5-1.4-0.5H99V74z"></path>
	<path class="st2" d="M112.6,66.5l1.5,6.9c0.3,1.4,0.6,2.9,0.9,5.3c0-0.3,0.1-0.4,0.1-0.4l0.3-2l0.3-1.9l0.3-1.2l1.3-6.8h2l1.6,17   h-2.2l-0.4-5.7c0-0.1,0-0.6,0-1.3l-0.1-2.3l-0.1-2.1l0-0.3c-0.1,0.7-0.1,0.9-0.2,1.4c-0.1,0.3-0.2,1.1-0.4,2.3l-0.1,0.6l-1.4,7.4   h-1.5l-1.3-6.4c-0.3-1.1-0.7-3.6-0.9-5.3l-0.7,11.7h-2.1l1.4-17H112.6z"></path>
	<path class="st2" d="M130.8,66.5l3.6,17h-2.3l-0.6-3.3h-3.4l-0.7,3.3h-2.2l3.7-17H130.8z M130.7,75.7c-0.3-1.7-0.7-4.5-0.8-5.9   c-0.2,2.1-0.5,4.2-1,6.4l-0.4,2.2h2.7L130.7,75.7z"></path>
	<path class="st2" d="M144.8,66.5v2h-2.6v14.9H140V68.5h-2.6v-2H144.8z"></path>
	<path class="st2" d="M152,66.5v17h-2.3v-17H152z"></path>
	<path class="st2" d="M165.3,68.1c0.8,1.5,1.1,3.5,1.1,7.3c0,6-1.2,8.3-4.3,8.3c-1.6,0-2.8-0.7-3.4-1.9c-0.7-1.4-1-3.6-1-7.2   c0-3.1,0.3-4.9,0.9-6.2c0.7-1.4,1.8-2.1,3.5-2.1C163.5,66.3,164.7,66.9,165.3,68.1z M160.4,69.6c-0.3,0.8-0.4,2.3-0.4,5.4   c0,5.1,0.5,6.5,2,6.5c0.9,0,1.5-0.6,1.7-1.8c0.2-0.9,0.3-2.5,0.3-4.1c0-5.9-0.4-7.3-2-7.3C161.2,68.3,160.7,68.7,160.4,69.6z"></path>
	<path class="st2" d="M174.1,66.5l2.3,6.8c0.6,1.7,1.4,4.6,1.7,6.1c-0.4-2.6-0.5-4-0.5-6.6v-6.3h2.3v17h-2.1l-2.6-7.6   c-0.2-0.7-0.7-2.4-0.9-2.9c0-0.2-0.2-0.8-0.4-1.7c0-0.1-0.1-0.5-0.2-0.9c0,0.4,0.1,0.7,0.1,0.8c0,0.6,0.1,1.1,0.1,1.7   c0.1,0.7,0.1,1.4,0.1,2.1l0,1l0.1,7.4h-2.3v-17H174.1z"></path>
	<path class="st2" d="M191.4,69.1c-0.7-0.6-1.2-0.8-1.9-0.8c-1.2,0-2.1,0.9-2.1,2.3c0,1.1,0.3,1.7,2.3,3.7c1,1,1.4,1.5,1.7,2.1   c0.5,0.8,0.7,1.8,0.7,2.8c0,2.6-1.6,4.5-3.9,4.5c-1,0-1.7-0.2-2.5-0.8v-2.3c0.9,0.7,1.5,0.9,2.2,0.9c1.2,0,2-0.9,2-2.3   c0-1.2-0.4-2-1.9-3.5c-1.5-1.5-1.8-1.8-2.2-2.6c-0.4-0.7-0.6-1.6-0.6-2.5c0-2.6,1.5-4.3,3.8-4.3c0.9,0,1.5,0.1,2.3,0.6L191.4,69.1z   "></path>
	<path class="st2" d="M200.2,66.5c2,0,3,0.4,3.9,1.6c1.1,1.4,1.5,3.4,1.5,7.2c0,3.6-0.5,5.6-1.6,6.9c-0.9,1-2.2,1.3-4.7,1.3h-1.9   v-17H200.2z M199.7,81.5c2.8,0,3.5-1.3,3.5-6.2c0-5.2-0.8-6.8-3.2-6.8h-0.3V81.5z"></path>
	<path class="st2" d="M213.4,66.5v17h-2.3v-17H213.4z"></path>
	<path class="st2" d="M225.4,66.5v1.9h-3.8v5.4h3.4v1.9h-3.4v5.8h3.8v1.9h-6.1v-17H225.4z"></path>
	<path class="st2" d="M232.9,66.5l2.3,6.8c0.6,1.7,1.4,4.6,1.7,6.1c-0.4-2.6-0.5-4-0.5-6.6v-6.3h2.3v17h-2.1l-2.6-7.6   c-0.2-0.7-0.7-2.4-0.9-2.9c0-0.2-0.2-0.8-0.4-1.7c-0.1-0.1-0.1-0.5-0.2-0.9c0,0.4,0.1,0.7,0.1,0.8c0,0.6,0.1,1.1,0.1,1.7   c0,0.7,0.1,1.4,0.1,2.1l0,1l0.1,7.4h-2.3v-17H232.9z"></path>
	<path class="st2" d="M250.2,69.1c-0.7-0.6-1.2-0.8-1.9-0.8c-1.2,0-2.1,0.9-2.1,2.3c0,1.1,0.3,1.7,2.3,3.7c1,1,1.4,1.5,1.7,2.1   c0.5,0.8,0.7,1.8,0.7,2.8c0,2.6-1.6,4.5-3.9,4.5c-1,0-1.7-0.2-2.5-0.8v-2.3c0.9,0.7,1.5,0.9,2.2,0.9c1.2,0,2-0.9,2-2.3   c0-1.2-0.4-2-1.9-3.5c-1.5-1.5-1.8-1.8-2.2-2.6c-0.4-0.7-0.6-1.6-0.6-2.5c0-2.6,1.5-4.3,3.8-4.3c0.9,0,1.5,0.1,2.3,0.6L250.2,69.1z   "></path>
	<path class="st2" d="M262.6,66.5v2h-2.6v14.9h-2.2V68.5h-2.6v-2H262.6z"></path>
</g>
<g>
	<path class="st2" d="M7.4,98.5c-1-0.8-1.6-1.1-2.4-1.1c-1,0-1.7,0.7-1.7,1.7c0,0.9,0.4,1.5,1.8,2.6c1.7,1.2,2.1,1.7,2.5,2.3   c0.5,0.8,0.8,1.7,0.8,2.7c0,3.1-1.9,5.2-4.8,5.2c-1.1,0-2.1-0.3-2.9-0.9v-3.2c1,0.7,1.7,0.9,2.5,0.9c1.2,0,2-0.7,2-1.9   c0-0.9-0.2-1.2-2-2.4c-2.3-1.6-3.1-2.9-3.1-5c0-3,1.8-5,4.4-5c1.1,0,1.9,0.2,3,0.8V98.5z"></path>
	<path class="st2" d="M17,94.7V106c0,1.3,0.1,1.8,0.3,2.3c0.3,0.5,0.7,0.7,1.3,0.7c0.8,0,1.3-0.4,1.5-1.1c0.1-0.3,0.1-0.9,0.1-1.9   V94.7h3.4v12.6c0,1.3-0.1,1.9-0.6,2.6c-0.8,1.3-2.4,2-4.5,2c-2.4,0-4.1-0.9-4.7-2.7c-0.3-0.7-0.3-1-0.3-2.4V94.7H17z M18.1,91.6   c0,0.9-0.8,1.7-1.7,1.7c-0.9,0-1.7-0.8-1.7-1.7s0.8-1.7,1.7-1.7C17.3,89.9,18.1,90.7,18.1,91.6z M22.6,91.6c0,0.9-0.8,1.7-1.7,1.7   c-0.9,0-1.7-0.8-1.7-1.7s0.8-1.7,1.7-1.7C21.9,89.9,22.6,90.7,22.6,91.6z"></path>
	<path class="st2" d="M32.4,94.7c2.4,0,3.7,0.5,5,1.7c1.5,1.4,2.3,3.8,2.3,6.9c0,5.5-2.4,8.4-6.9,8.4h-3.3v-17H32.4z M33,108.6   c1,0,1.5-0.2,2.1-0.8c0.8-0.9,1.3-2.6,1.3-4.5c0-1.9-0.5-3.7-1.3-4.6c-0.6-0.7-1.1-0.9-2.1-1V108.6z"></path>
	<path class="st2" d="M51.2,94.7l4,17h-3.6l-0.6-2.8h-3.4l-0.6,2.8h-3.4l3.9-17H51.2z M50,103.6c-0.4-1.8-0.5-2.8-0.7-4.5   c-0.1,1.4-0.4,3.5-0.6,4.8l-0.5,2.3h2.4L50,103.6z"></path>
	<path class="st2" d="M67.1,98.5c-1-0.8-1.6-1.1-2.4-1.1c-1,0-1.7,0.7-1.7,1.7c0,0.9,0.4,1.5,1.8,2.6c1.7,1.2,2.1,1.7,2.5,2.3   c0.5,0.8,0.8,1.7,0.8,2.7c0,3.1-1.9,5.2-4.8,5.2c-1.1,0-2.1-0.3-2.9-0.9v-3.2c1,0.7,1.7,0.9,2.5,0.9c1.2,0,2-0.7,2-1.9   c0-0.9-0.2-1.2-2-2.4c-2.3-1.6-3.1-2.9-3.1-5c0-3,1.8-5,4.4-5c1.1,0,1.9,0.2,3,0.8V98.5z"></path>
	<path class="st2" d="M76.7,94.7v17h-3.4v-17H76.7z"></path>
	<path class="st2" d="M89.3,94.7v3.1H86v3.7h3v3.2h-3v3.8h3.4v3.1h-6.8v-17H89.3z"></path>
	<path class="st2" d="M98.1,94.7l4.1,10.2c-0.2-0.7-0.2-1.5-0.3-2.3v-7.9h3.4v17h-3.2l-4.1-10.2c0.1,0.6,0.1,1.2,0.2,2.2v8h-3.4v-17   H98.1z"></path>
</g>
</svg>
